<?xml version="1.0" encoding="UTF-8"?><!DOCTYPE svg PUBLIC "-//W3C//DTD SVG 1.1//EN" "http://www.w3.org/Graphics/SVG/1.1/DTD/svg11.dtd"><svg xmlns="http://www.w3.org/2000/svg" xmlns:xlink="http://www.w3.org/1999/xlink"><defs><path id="arrow-left-a" d="M0 3h23.502V0H0v3z"/><path id="arrow-left-b" d="M0 7.01l-1.061-1.06-1.059 1.06 1.059 1.06L0 7.01zm5.939-8.07l-7 7.01L1.06 8.07l7-7.01L5.94-1.06zm-7 9.13l6.994 7.005 2.123-2.12L1.06 5.95-1.06 8.07z"/><path id="arrow-right-a" d="M0 3h23.502V0H0v3z"/><path id="arrow-right-b" d="M0 7.01l-1.061-1.06-1.059 1.06 1.059 1.06L0 7.01zm5.939-8.07l-7 7.01L1.06 8.07l7-7.01L5.94-1.06zm-7 9.13l6.994 7.005 2.123-2.12L1.06 5.95-1.06 8.07z"/></defs><symbol id="arrow-left" viewBox="0 0 27 17"><title>Group</title><desc>Created using Figma</desc><use xlink:href="#arrow-left-a" transform="translate(3 7)"/><use xlink:href="#arrow-left-b" transform="translate(3 1.508)"/></symbol><symbol id="arrow-right" viewBox="0 0 27 17"><title>Group</title><desc>Created using Figma</desc><use xlink:href="#arrow-right-a" transform="rotate(-180 12 5)"/><use xlink:href="#arrow-right-b" transform="rotate(-180 12 7.746)"/></symbol></svg>