<svg width="58" height="60" viewBox="0 0 58 60" version="1.1" xmlns="http://www.w3.org/2000/svg" xmlns:xlink="http://www.w3.org/1999/xlink">
<title>006-stopwatch</title>
<desc>Created using Figma</desc>
<g id="Canvas" transform="translate(-26238 788)">
<g id="006-stopwatch">
<g id="Shape">
<use xlink:href="#path0_fill" transform="translate(26264.8 -766)" fill="#ED1A3B"/>
</g>
<g id="Shape">
<use xlink:href="#path1_fill" transform="translate(26260.8 -788)" fill="#ED1A3B"/>
</g>
<g id="Shape">
<use xlink:href="#path2_fill" transform="translate(26252.8 -774)" fill="#ED1A3B"/>
</g>
<g id="Shape">
<use xlink:href="#path3_fill" transform="translate(26247.8 -767)" fill="#ED1A3B"/>
</g>
<g id="Shape">
<use xlink:href="#path4_fill" transform="translate(26242.8 -760)" fill="#ED1A3B"/>
</g>
<g id="Shape">
<use xlink:href="#path5_fill" transform="translate(26238.8 -753)" fill="#ED1A3B"/>
</g>
<g id="Shape">
<use xlink:href="#path6_fill" transform="translate(26244.8 -746)" fill="#ED1A3B"/>
</g>
<g id="Shape">
<use xlink:href="#path7_fill" transform="translate(26250.8 -739)" fill="#ED1A3B"/>
</g>
</g>
</g>
<defs>
<path id="path0_fill" fill-rule="evenodd" d="M 6.44727 14.5295C 5.83008 15.3766 4.88086 15.9076 3.83984 15.9886C 3.74609 15.9955 3.6543 15.9996 3.56055 15.9996C 2.61914 15.9996 1.71484 15.6276 1.04297 14.9556C 0.306641 14.2186 -0.0703125 13.1996 0.0117188 12.1586C 0.0917969 11.1176 0.623047 10.1686 1.4668 9.55457L 14.4121 0.188599C 14.8105 -0.0974121 15.3574 -0.0544434 15.7051 0.292542C 16.0547 0.640564 16.0977 1.1886 15.8105 1.58557L 6.44727 14.5295ZM 2.64258 11.1726C 2.27344 11.4406 2.03906 11.8576 2.00391 12.3146C 1.96875 12.7706 2.13477 13.2186 2.45703 13.5416C 2.78125 13.8666 3.22852 14.0246 3.68359 13.9946C 4.14062 13.9586 4.55859 13.7256 4.82812 13.3546L 10.5391 5.45959L 2.64258 11.1726Z"/>
<path id="path1_fill" fill-rule="evenodd" d="M 30.2422 19.564L 30.2324 19.5349L 30.2207 19.5L 30.1973 19.4724L 30.1758 19.45C 29.166 17.716 27.9688 16.103 26.6113 14.641L 28.7598 12.494L 30.1738 13.908L 34.416 9.66498L 30.1738 5.42297L 25.9316 9.66498L 27.3457 11.08L 25.1973 13.227C 23.7363 11.869 22.123 10.672 20.3887 9.66101L 20.3652 9.64069L 20.3379 9.617L 20.3047 9.60535L 20.2754 9.59497C 17.1816 7.81299 13.707 6.62598 10.002 6.19098L 10.002 5L 11.502 5C 12.8809 5 14.002 3.87903 14.002 2.5C 14.002 1.12097 12.8789 0 11.5 0L 2.5 0C 1.12109 0 0 1.12097 0 2.5C 0 3.87903 1.12109 5 2.5 5L 4 5L 4 6.15601C 2.91992 6.271 1.8418 6.44702 0.777344 6.69098C 0.238281 6.81403 -0.0976562 7.35101 0.0253906 7.88898C 0.148438 8.427 0.685547 8.76501 1.22461 8.64001C 2.14453 8.42902 3.07227 8.27002 4.00391 8.16302L 5.07617 8.08002C 5.4043 8.05499 5.70703 8.03699 6 8.02301L 6 10C 6 10.553 6.44727 11 7 11C 7.55273 11 8 10.553 8 10L 8 8.03003C 11.7617 8.203 15.3066 9.21301 18.457 10.875L 17.4707 12.582C 17.1953 13.061 17.3594 13.672 17.8359 13.948C 17.9941 14.039 18.166 14.082 18.3359 14.082C 18.6816 14.082 19.0176 13.903 19.2031 13.582L 20.1855 11.879C 23.3145 13.864 25.9727 16.522 27.957 19.651L 26.2539 20.634C 25.7773 20.91 25.6133 21.521 25.8906 22C 26.0762 22.321 26.4121 22.5 26.7578 22.5C 26.9277 22.5 27.0996 22.457 27.2559 22.366L 28.9629 21.38C 30.6484 24.576 31.6621 28.178 31.8125 31.999L 29.8379 31.999C 29.2852 31.999 28.8379 32.446 28.8379 32.999C 28.8379 33.552 29.2852 33.999 29.8379 33.999L 31.8125 33.999C 31.6621 37.82 30.6484 41.422 28.9629 44.618L 27.2559 43.632C 26.7793 43.356 26.166 43.518 25.8906 43.998C 25.6152 44.477 25.7793 45.088 26.2559 45.364L 27.959 46.347C 25.9746 49.476 23.3164 52.134 20.1875 54.119L 19.2051 52.416C 18.9277 51.936 18.3145 51.773 17.8379 52.05C 17.3594 52.326 17.1953 52.938 17.4727 53.416L 18.459 55.123C 15.3086 56.785 11.7637 57.795 8.00195 57.968L 8.00195 56C 8.00195 55.447 7.55664 55 7.00195 55C 6.44922 55 6.00195 55.447 6.00195 56L 6.00195 57.976C 4.40625 57.921 2.80273 57.721 1.22656 57.359C 0.689453 57.23 0.152344 57.572 0.0292969 58.11C -0.0957031 58.648 0.242188 59.185 0.779297 59.308C 2.77539 59.768 4.81445 60 6.83789 60L 6.98242 59.996L 7 60L 7.02344 59.995C 11.8301 59.962 16.3398 58.664 20.2422 56.422L 20.2793 56.408L 20.3359 56.383L 20.3633 56.3593L 20.3867 56.339C 24.4258 53.985 27.8008 50.614 30.1602 46.578L 30.1855 46.5457L 30.2188 46.5L 30.2324 46.4634L 30.2402 46.436C 32.5254 42.476 33.8379 37.89 33.8379 33C 33.8379 28.11 32.5254 23.524 30.2422 19.564ZM 30.1719 8.25098L 31.5859 9.66498L 30.1719 11.08L 28.7578 9.66498L 30.1719 8.25098ZM 6 3L 6 6.021L 6.3457 6.01398L 6.55273 6.00739L 6.83789 6L 6.91211 6.00201L 7 6C 7.32031 6 7.65234 6.00702 8 6.021L 8 3L 11.5 3C 11.7754 3 12 2.77502 12 2.5C 12 2.22498 11.7754 2 11.5 2L 2.5 2C 2.22461 2 2 2.22498 2 2.5C 2 2.77502 2.22461 3 2.5 3L 6 3Z"/>
<path id="path2_fill" d="M 6 0L 1 0C 0.447 0 0 0.447 0 1C 0 1.553 0.447 2 1 2L 6 2C 6.553 2 7 1.553 7 1C 7 0.447 6.553 0 6 0Z"/>
<path id="path3_fill" d="M 11 0L 1 0C 0.447 0 0 0.447 0 1C 0 1.553 0.447 2 1 2L 11 2C 11.553 2 12 1.553 12 1C 12 0.447 11.553 0 11 0Z"/>
<path id="path4_fill" d="M 16 0L 1 0C 0.447 0 0 0.447 0 1C 0 1.553 0.447 2 1 2L 16 2C 16.553 2 17 1.553 17 1C 17 0.447 16.553 0 16 0Z"/>
<path id="path5_fill" d="M 20 0L 1 0C 0.447 0 0 0.447 0 1C 0 1.553 0.447 2 1 2L 20 2C 20.553 2 21 1.553 21 1C 21 0.447 20.553 0 20 0Z"/>
<path id="path6_fill" d="M 14 0L 1 0C 0.447 0 0 0.447 0 1C 0 1.553 0.447 2 1 2L 14 2C 14.553 2 15 1.553 15 1C 15 0.447 14.553 0 14 0Z"/>
<path id="path7_fill" d="M 8 0L 1 0C 0.447 0 0 0.447 0 1C 0 1.553 0.447 2 1 2L 8 2C 8.553 2 9 1.553 9 1C 9 0.447 8.553 0 8 0Z"/>
</defs>
</svg>
