<svg width="60" height="60" viewBox="0 0 60 60" version="1.1" xmlns="http://www.w3.org/2000/svg" xmlns:xlink="http://www.w3.org/1999/xlink">
<title>002-user</title>
<desc>Created using Figma</desc>
<g id="Canvas" transform="translate(-26569 783)">
<g id="002-user">
<g id="Shape">
<use xlink:href="#path0_fill" transform="translate(26569 -783)" fill="#ED1A3B"/>
</g>
</g>
</g>
<defs>
<path id="path0_fill" fill-rule="evenodd" d="M 30 0C 46.543 0 60 13.458 60 30C 60 36.142 58.1426 41.857 54.9629 46.617L 54.9648 46.638L 54.7578 46.941C 54.6562 47.0884 54.5508 47.2314 54.4453 47.3738L 54.3848 47.4549L 54.1953 47.709L 53.9668 48.022C 53.7285 48.338 53.4824 48.648 53.2344 48.953L 53.0176 49.214C 51.8594 50.6 50.5898 51.867 49.2246 53.009L 48.9746 53.217C 48.6777 53.46 48.375 53.698 48.0684 53.929L 47.6934 54.206C 47.4023 54.42 47.1094 54.632 46.8105 54.835L 46.5059 55.0336L 46.3223 55.152C 45.9062 55.422 45.4863 55.682 45.0586 55.931C 44.7598 56.105 44.4609 56.278 44.1562 56.442L 43.7246 56.6639L 43.5977 56.728C 43.2734 56.894 42.9473 57.055 42.6152 57.209L 42.1133 57.436C 41.7305 57.605 41.3438 57.766 40.9531 57.92L 40.5879 58.064C 39.5156 58.47 38.4121 58.818 37.2852 59.1L 37.1465 59.132C 36.6484 59.254 36.1465 59.363 35.6387 59.46L 35.2324 59.533C 34.8086 59.608 34.3828 59.674 33.9531 59.731L 33.4629 59.794C 33.043 59.843 32.6211 59.88 32.1973 59.911L 31.7246 59.947C 31.1523 59.979 30.5781 60 30 60C 29.4219 60 28.8477 59.979 28.2754 59.949L 27.8027 59.913C 27.3789 59.882 26.957 59.844 26.5371 59.796L 26.0469 59.733C 25.6172 59.676 25.1914 59.61 24.7676 59.535L 24.3613 59.462C 23.8535 59.365 23.3516 59.256 22.8535 59.134L 22.7148 59.102C 21.5879 58.82 20.4844 58.472 19.4121 58.066L 19.0488 57.922C 18.6582 57.768 18.2695 57.607 17.8867 57.437L 17.3848 57.21C 17.0547 57.056 16.7266 56.895 16.4023 56.729L 16.2285 56.6412L 15.8457 56.443C 15.5391 56.279 15.2402 56.106 14.9434 55.932C 14.5156 55.684 14.0957 55.423 13.6797 55.153L 13.4941 55.0341L 13.1914 54.836C 12.8906 54.633 12.5996 54.421 12.3066 54.207L 11.9316 53.93C 11.625 53.699 11.3242 53.461 11.0254 53.218L 10.7773 53.01C 9.41016 51.869 8.14062 50.601 6.98438 49.216L 6.76562 48.954C 6.51758 48.649 6.27148 48.339 6.0332 48.023L 5.80469 47.71L 5.61523 47.4548C 5.48828 47.286 5.36328 47.1171 5.24219 46.942L 5.03516 46.639L 5.03711 46.618C 1.85742 41.857 0 36.142 0 30C 0 13.458 13.457 0 30 0ZM 54.4082 43.694C 56.6914 39.642 58 34.972 58 30C 58 18.086 50.5176 7.89197 40.0059 3.85498C 42.6387 6.22296 44.4492 9.492 44.8887 13.15C 45.7305 20.174 41.7148 30.217 35.2754 32.638C 35.1484 32.687 35 32.807 35 32.99L 35 33.635C 35 33.836 35.1641 34 35.3652 34L 36 34L 41.3105 34L 42 34L 42 34.032C 47.8457 34.321 52.7617 38.234 54.4082 43.694ZM 52.5371 46.59L 52.2949 46.915C 52.0703 47.208 51.8457 47.499 51.6113 47.783L 51.5391 47.869C 50.7305 48.841 49.8574 49.757 48.9277 50.612L 48.7617 50.765C 48.4844 51.016 48.2012 51.26 47.9141 51.5L 47.6426 51.723C 47.3633 51.95 47.082 52.173 46.7949 52.389L 46.5 52.603C 46.3359 52.724 46.168 52.841 46 52.958L 46 42L 42 42L 42 36.031C 47.5742 36.354 52.1387 40.541 52.8906 46.095L 52.8203 46.1948L 52.7676 46.2706L 52.5371 46.59ZM 42.5762 55.005L 43.1133 54.729C 43.3711 54.592 43.627 54.447 43.8809 54.301L 43.998 54.233L 43.998 44L 41.998 44L 35.998 44L 23.998 44L 17.998 44L 15.998 44L 15.998 54.234L 16.1152 54.302L 16.1836 54.3402C 16.416 54.4726 16.6504 54.605 16.8848 54.73L 17.3438 54.9661L 17.4219 55.006C 17.7246 55.158 18.0273 55.305 18.3359 55.446L 18.7852 55.65C 19.1699 55.818 19.5586 55.978 19.9512 56.129L 20.1914 56.224C 21.1914 56.598 22.2148 56.915 23.2559 57.174L 23.4805 57.226C 23.9121 57.33 24.3477 57.423 24.7832 57.506L 25.1758 57.576C 25.5625 57.643 25.9531 57.702 26.3457 57.754L 26.7988 57.812C 27.1875 57.857 27.5781 57.89 27.9688 57.919L 28.4043 57.952C 28.9336 57.982 29.4648 58 30 58C 30.5332 58 31.0645 57.982 31.5957 57.95L 32.0293 57.917C 32.4219 57.888 32.8125 57.855 33.1992 57.81L 33.6543 57.752C 34.0469 57.701 34.4355 57.642 34.8242 57.574L 35.2148 57.504C 35.6523 57.422 36.0859 57.328 36.5176 57.225L 36.7422 57.173C 37.7832 56.915 38.8066 56.597 39.8066 56.223L 40.0469 56.128C 40.4395 55.977 40.8281 55.817 41.2129 55.649L 41.6621 55.445C 41.9707 55.304 42.2734 55.157 42.5762 55.005ZM 13.207 52.389C 12.9199 52.173 12.6387 51.95 12.3594 51.724L 12.0859 51.5C 11.7988 51.261 11.5156 51.017 11.2402 50.766L 11.0723 50.611C 10.1426 49.756 9.26953 48.841 8.46289 47.869L 8.38867 47.783C 8.15625 47.499 7.92969 47.208 7.70703 46.915L 7.46289 46.59L 7.11133 46.095C 7.86328 40.541 12.4258 36.354 18 36.031L 18 42L 14 42L 14 52.958L 13.5 52.603L 13.207 52.389ZM 17 15C 17 20.85 20.709 29.022 25.4902 30.791C 26.3945 31.126 27 32.014 27 33L 27 33.635C 27 34.938 25.9375 36 24.6348 36L 24 36L 24 42L 36 42L 36 36L 35.3652 36C 34.0625 36 33 34.938 33 33.635L 33 32.99C 33 31.999 33.6172 31.126 34.5723 30.766C 39.6777 28.847 43.2637 20.414 42.9707 14.314C 41.0508 11.831 38.2109 9.86096 35.0273 8.81598C 33.6406 11.3849 30.9707 13 28 13C 26.873 13 25.7852 12.771 24.7637 12.317C 22.2207 11.191 19.4023 11.753 17.752 13.717L 17.0195 14.62L 17.0098 14.7825L 17.0059 14.8361L 17 15ZM 30.041 2.00201L 30.0742 2.00201C 30.5625 2.005 31.043 2.03204 31.5039 2.08502C 36.4629 2.638 40.6289 6.09003 42.2559 10.674C 40.1406 8.83203 37.5469 7.414 34.7578 6.64703L 33.8984 6.41101L 33.5664 7.237C 32.6445 9.52203 30.4609 11 28 11C 27.1562 11 26.3379 10.828 25.5742 10.489C 22.8086 9.26501 19.7871 9.59601 17.5566 11.218C 18.1699 9.19202 19.2773 7.336 20.8184 5.79803C 23.2715 3.35004 26.5312 2.00201 30.041 2.00201ZM 38 42L 40 42L 40 36L 38 36L 38 42ZM 22 42L 20 42L 20 36L 22 36L 22 42ZM 19.7988 4.02228L 19.9824 3.85999C 9.47852 7.89996 2 18.09 2 30C 2 34.972 3.30859 39.642 5.5918 43.694C 7.23828 38.234 12.1543 34.321 18 34.032L 18 34L 18.6895 34L 24 34L 24.6348 34C 24.8359 34 25 33.836 25 33.635L 25 33C 25 32.848 24.916 32.711 24.7969 32.666C 19.1895 30.593 15 21.629 15 15C 15 10.987 16.5645 7.21796 19.4043 4.383C 19.5312 4.25623 19.6641 4.13928 19.7988 4.02228Z"/>
</defs>
</svg>
