<svg width="55" height="55" viewBox="0 0 55 55" version="1.1" xmlns="http://www.w3.org/2000/svg" xmlns:xlink="http://www.w3.org/1999/xlink">
<title>001-tools</title>
<desc>Created using Figma</desc>
<g id="Canvas" transform="translate(-26892 783)">
<g id="001-tools">
<g id="Shape">
<use xlink:href="#path0_fill" transform="translate(26892 -783)" fill="#ED1A3B"/>
</g>
</g>
</g>
<defs>
<path id="path0_fill" fill-rule="evenodd" d="M 51.7832 41.4716C 50.6406 40.6689 49.3262 40.2377 47.9961 40.1674C 42.9844 36.8856 39.7012 34.4224 37.7852 32.5057L 31.8965 26.6182L 35.4707 22.619C 36.1465 23.0012 36.875 23.253 37.6016 23.3569C 38.1504 23.4483 38.5156 23.4483 38.8828 23.4483C 39.6152 23.4483 39.7969 23.4483 40.5293 24.0887C 40.1641 24.3632 39.9805 24.8206 39.9805 25.278C 39.9805 25.7354 40.1641 26.2844 40.5293 26.6503L 43.7305 29.8525C 44.1895 30.4014 44.9199 30.6758 45.6523 30.6758C 46.3848 30.6758 47.1172 30.4014 47.5742 29.761L 54.0703 23.2653C 54.6191 22.8079 54.8926 22.076 54.8926 21.3441C 54.8926 20.6121 54.6191 19.9717 54.0703 19.4229L 50.8672 16.2207C 50.502 15.8548 50.0449 15.6718 49.5859 15.6718C 49.1289 15.6718 48.6719 15.9462 48.3047 16.2207C 47.5742 15.5803 47.5742 15.3973 47.5742 14.6653C 47.5742 14.2994 47.5742 13.842 47.3906 13.293C 47.207 12.0122 46.5664 10.7314 45.5605 9.72504L 42.2676 6.43146C 40.3457 4.51019 39.4316 3.59534 36.9609 2.4975C 31.6543 0.0273438 26.2578 0.484802 18.3887 4.05286C 17.9316 4.23584 17.748 4.60175 17.8398 5.05927C 17.9316 5.51672 18.2969 5.7912 18.7559 5.7912L 19.9434 5.7912C 23.9688 5.7912 26.0742 5.7912 29.7344 9.45068C 31.3359 11.053 31.3828 13.5101 29.9473 15.3177C 29.752 15.3469 29.6055 15.4338 29.459 15.5803L 25.3945 20.1163L 22.3223 17.0442C 18.9473 13.6677 16.5723 10.473 14.7441 6.91583C 14.6484 5.11584 13.9258 3.43176 12.625 2.13171C 11.0703 0.576477 8.875 -0.155457 6.67773 0.0275269C 6.4043 0.119019 6.12891 0.302002 6.03906 0.485046C 5.85547 0.75946 5.85547 1.12543 6.03906 1.39984L 8.59961 5.9743C 8.05078 7.16364 6.76953 7.89557 5.49023 7.80408L 2.83594 3.41254C 2.74414 3.13812 2.37891 2.95508 2.10352 2.95508C 1.83008 2.86365 1.55469 3.04657 1.37305 3.32098C -0.824219 6.61456 0 11.006 3.29297 13.2932C 4.42773 14.1037 5.70703 14.5544 7.00195 14.6469L 7.04492 14.6655C 10.6133 16.4953 13.8145 18.8739 17.1992 22.259L 20.5449 25.5289L 1.09766 47.2354C 0.365234 47.9673 0 48.9736 0 49.98C 0 50.9864 0.365234 51.9012 1.09766 52.6332L 2.37891 53.9141C 3.11133 54.5544 4.02539 54.9204 4.93945 54.9204C 5.85547 54.9204 6.86133 54.5545 7.59375 53.8226L 27.0195 32.0785L 32.6621 37.7206C 34.5801 39.6401 37.0488 43.0207 40.3379 47.9534C 40.4551 49.7142 41.1758 51.3582 42.4512 52.6332C 43.8223 54.0055 45.6523 54.7374 47.5742 54.7374L 48.3066 54.7374C 48.5801 54.7374 48.8555 54.5544 49.0371 54.28C 49.2207 54.0055 49.2207 53.6396 49.0371 53.3651L 46.3848 48.8823C 47.0254 47.6929 48.2148 46.961 49.5859 47.0524L 52.1484 51.4438C 52.2402 51.7183 52.6055 51.9014 52.8809 51.9014C 53.2461 51.8099 53.5215 51.7183 53.7031 51.4438C 55.8984 48.1502 54.9844 43.7588 51.7832 41.4716ZM 30.9238 7.987C 27.9961 5.15094 25.8008 4.23596 23.3301 3.96149C 28.5449 2.3147 32.3867 2.40619 36.2305 4.14453C 38.4258 5.05933 39.1582 5.79132 41.0781 7.71252L 44.373 11.0061C 45.1035 11.738 45.5625 12.6529 45.6523 13.5677C 45.7441 14.0252 45.7441 14.3911 45.7441 14.6656C 45.7441 15.672 45.8359 16.4038 46.9336 17.5017C 47.3008 17.8676 47.8496 18.0506 48.3066 18.0506C 48.8555 18.0506 49.3125 17.8676 49.5879 17.5017L 52.7891 20.7038C 52.9727 20.8868 53.0645 21.0697 53.0645 21.3442C 53.0645 21.6187 52.9727 21.8016 52.7891 21.9846L 46.293 28.4802C 45.9277 28.8461 45.3789 28.8461 45.0137 28.4802L 41.8105 25.2781C 42.1758 25.0037 42.3594 24.5462 42.2676 23.9973C 42.2676 23.5398 42.0859 22.9908 41.7188 22.6249C 40.6211 21.5271 39.8887 21.4356 38.8828 21.4356C 38.6094 21.4356 38.2422 21.4356 37.7852 21.3442C 36.7793 21.2527 35.9551 20.7952 35.2227 20.0633L 31.2891 16.1293C 33.3027 13.6593 33.1191 10.1827 30.9238 7.987ZM 4.11719 9.08484L 2.19727 5.79126C 1.55664 7.987 2.37891 10.4572 4.30078 11.8297C 6.13086 13.1105 8.60156 13.1105 10.4297 11.9211C 11.582 11.1533 12.4102 9.99829 12.7539 8.67358C 12.8496 8.27521 12.9004 7.86188 12.9004 7.43817C 12.9004 7.35272 12.9102 7.27692 12.9277 7.20648C 12.8926 5.8183 12.2891 4.52594 11.3457 3.50415C 10.5215 2.68073 9.51562 2.13177 8.41797 1.94879L 10.4297 5.42535C 10.6133 5.69983 10.6133 5.9743 10.4297 6.24878L 10.248 6.70624C 9.33203 8.53595 7.41211 9.63379 5.30664 9.54236L 4.84961 9.54236C 4.57617 9.54236 4.30078 9.35931 4.11719 9.08484ZM 18.4805 20.9783C 15.7363 18.1422 12.9922 15.9465 10.0645 14.2081C 10.5215 14.0251 11.0703 13.7506 11.5273 13.4762C 12.9004 12.5613 13.8145 11.3719 14.3652 9.90814C 16.1035 12.8358 18.2988 15.5804 21.043 18.3251L 24.1855 21.4675L 21.7207 24.218L 18.4805 20.9783ZM 3.66016 52.5416C 4.39258 53.2736 5.58203 53.1821 6.3125 52.4501L 26.0352 30.3855C 26.0801 30.2598 26.1523 30.1401 26.2578 30.0356L 29.916 25.9186C 30.0117 25.8235 30.1074 25.7537 30.2148 25.7081L 33.9902 21.4839L 30.1484 17.6415L 6.61523 43.97L 8.14258 45.497C 8.50781 45.863 8.50781 46.4119 8.14258 46.7779C 7.95898 46.9609 7.77734 47.0523 7.50195 47.0523C 7.22852 47.0523 7.04492 46.9609 6.86133 46.7779L 5.40625 45.3226L 4.19727 46.6752L 5.58008 48.0587C 5.94727 48.4247 5.94727 48.9737 5.58008 49.3396C 5.39844 49.5226 5.21484 49.6141 4.94141 49.6141C 4.66602 49.6141 4.48242 49.5226 4.30078 49.3396L 2.98828 48.028L 2.4707 48.6077C 2.01367 49.065 1.83008 49.5225 1.83008 50.0714C 1.83008 50.5289 2.01367 50.9864 2.37891 51.3523L 3.66016 52.5416ZM 28.2715 30.6771L 30.7754 27.8746L 36.6875 33.7866C 38.334 35.5248 41.1699 37.7205 45.2871 40.4651C 44.7383 40.6482 44.1895 40.9227 43.6406 41.2886C 42.5059 41.998 41.7012 42.983 41.1406 44.0718L 41.1172 44.1189L 41.0195 44.3165L 40.8906 44.601L 40.8086 44.796L 40.7969 44.8243L 40.7129 45.0396C 40.1934 44.2775 39.6934 43.5582 39.2129 42.8806L 40.4375 41.6546C 40.8047 41.2887 40.8047 40.7397 40.4375 40.3737C 40.0723 40.0078 39.5234 40.0078 39.1582 40.3737L 38.1367 41.3936C 37.7578 40.8777 37.3906 40.3911 37.0352 39.9336L 37.877 39.0928C 38.2422 38.7269 38.2422 38.178 37.877 37.812C 37.5098 37.446 36.9609 37.446 36.5957 37.812L 35.8965 38.5104C 35.2246 37.7 34.6055 37.0103 34.0332 36.4397L 28.2715 30.6771ZM 50.8672 45.68L 52.7891 48.9736C 53.4297 46.7779 52.6055 44.3077 50.6855 42.9355C 49.7695 42.295 48.6719 41.9291 47.5742 41.9291C 46.4766 41.9291 45.4707 42.2036 44.5547 42.8439C 43.9805 43.2268 43.4883 43.7068 43.0938 44.2551C 42.4531 45.1742 42.0859 46.2593 42.0859 47.4183C 42.0859 47.4985 42.0762 47.5704 42.0605 47.6373C 42.1172 48.9954 42.7148 50.2582 43.6406 51.2607C 44.4629 52.0841 45.4707 52.6331 46.5684 52.8161L 44.5547 49.3395C 44.373 49.065 44.373 48.7906 44.5547 48.5161L 44.7383 48.0587C 45.6523 46.2289 47.5742 45.0396 49.6777 45.2225L 50.1367 45.2225C 50.4102 45.2225 50.6855 45.4056 50.8672 45.68Z"/>
</defs>
</svg>
