<svg width="57" height="57" viewBox="0 0 57 57" version="1.1" xmlns="http://www.w3.org/2000/svg" xmlns:xlink="http://www.w3.org/1999/xlink">
<title>monitor</title>
<desc>Created using Figma</desc>
<g id="Canvas" transform="translate(-26240 475)">
<g id="monitor">
<g id="Shape">
<use xlink:href="#path0_fill" transform="translate(26240 -475)" fill="#ED1A3B"/>
</g>
<g id="Shape">
<use xlink:href="#path1_fill" transform="translate(26260.5 -465.585)" fill="#ED1A3B"/>
</g>
<g id="Rectangle-path">
<use xlink:href="#path2_fill" transform="translate(26249.2 -453.855)" fill="#ED1A3B"/>
</g>
<g id="Rectangle-path">
<use xlink:href="#path2_fill" transform="translate(26249.2 -450.177)" fill="#ED1A3B"/>
</g>
<g id="Rectangle-path">
<use xlink:href="#path2_fill" transform="translate(26249.2 -446.5)" fill="#ED1A3B"/>
</g>
<g id="Shape">
<use xlink:href="#path3_fill" transform="translate(26284 -454.603)" fill="#ED1A3B"/>
</g>
<g id="Shape">
<use xlink:href="#path4_fill" transform="translate(26280 -445.285)" fill="#ED1A3B"/>
</g>
<g id="Rectangle-path">
<use xlink:href="#path5_fill" transform="translate(26262.1 -452.935)" fill="#ED1A3B"/>
</g>
<g id="Rectangle-path">
<use xlink:href="#path2_fill" transform="translate(26273.1 -449.258)" fill="#ED1A3B"/>
</g>
<g id="Rectangle-path">
<use xlink:href="#path6_fill" transform="translate(26262.1 -449.258)" fill="#ED1A3B"/>
</g>
</g>
</g>
<defs>
<path id="path0_fill" fill-rule="evenodd" d="M 52.4023 11.0323L 44.084 11.0323C 41.8047 4.61517 35.6875 0 28.5 0C 21.3125 0 15.1953 4.61517 12.916 11.0323L 4.59766 11.0323C 2.0625 11.0323 0 13.0944 0 15.629L 0 46.8871C 0 49.4218 2.0625 51.4839 4.59766 51.4839L 15.6289 51.4839L 15.6289 55.1613L 11.9512 55.1613L 11.9512 57L 45.0488 57L 45.0488 55.1613L 41.3711 55.1613L 41.3711 51.4839L 52.4023 51.4839C 54.9375 51.4839 57 49.4218 57 46.8871L 57 15.629C 57 13.0944 54.9375 11.0323 52.4023 11.0323ZM 13.8359 15.6299C 13.9609 13.6221 14.4883 11.7254 15.3418 10.0136L 16.8945 10.91L 17.8145 9.31766L 16.2539 8.4176C 17.3379 6.7876 18.7383 5.38742 20.3672 4.30167L 21.2676 5.86087L 22.8594 4.94153L 21.9629 3.38965C 23.6758 2.5365 25.5723 2.01062 27.5801 1.88559L 27.5801 3.6774L 29.418 3.6774L 29.418 1.88559C 31.4258 2.01062 33.3223 2.5365 35.0352 3.38965L 34.1387 4.94153L 35.7305 5.86087L 36.6309 4.30167C 38.2598 5.38651 39.6602 6.78668 40.7441 8.41577L 39.1836 9.31583L 40.1035 10.9081L 41.6562 10.0118C 42.5098 11.7236 43.0352 13.6202 43.1621 15.6281L 41.3711 15.6281L 41.3711 17.4668L 43.1621 17.4668C 43.0371 19.4747 42.5117 21.3713 41.6582 23.0832L 40.1055 22.1868L 39.1855 23.7791L 40.7461 24.6791C 38.1074 28.6407 33.6055 31.2581 28.5 31.2581C 23.3945 31.2581 18.8906 28.6407 16.252 24.681L 17.8125 23.7809L 16.8945 22.1886L 15.3418 23.085C 14.4863 21.3732 13.9609 19.4765 13.8359 17.4687L 15.6289 17.4687L 15.6289 15.6299L 13.8359 15.6299ZM 51.4844 25.7419C 51.4844 21.797 48.752 18.4836 44.9922 17.6663C 44.6113 23.3176 41.3906 28.1929 36.7402 30.8784C 38.3047 32.8568 40.6562 34.0161 43.209 34.0161C 47.7734 34.0161 51.4844 30.3038 51.4844 25.7419ZM 20.2598 30.8784C 18.6953 32.8568 16.3438 34.0161 13.7891 34.0161C 9.22656 34.0161 5.51562 30.3038 5.51562 25.7419C 5.51562 21.797 8.24609 18.4836 12.0078 17.6663C 12.3887 23.3176 15.6074 28.1929 20.2598 30.8784ZM 17.4668 51.4839L 17.4668 55.1613L 39.5312 55.1613L 39.5312 51.4839L 17.4668 51.4839ZM 55.1602 46.8871C 55.1602 48.4077 53.9238 49.6452 52.4023 49.6452L 4.5957 49.6452C 3.07617 49.6452 1.83789 48.4077 1.83789 46.8871L 1.83789 45.9677L 55.1602 45.9677L 55.1602 46.8871ZM 1.83789 44.129L 55.1602 44.129L 55.1602 15.629C 55.1602 14.1084 53.9238 12.871 52.4023 12.871L 44.6211 12.871C 44.8379 13.8179 44.9648 14.7961 45.0098 15.7964C 49.7988 16.6505 53.3223 20.7894 53.3223 25.7419C 53.3223 31.3178 48.7852 35.8549 43.209 35.8549C 39.9629 35.8549 36.9922 34.3149 35.0879 31.7205C 33.0664 32.6013 30.8398 33.0968 28.5 33.0968C 26.1582 33.0968 23.9316 32.6013 21.9102 31.7205C 20.0059 34.3149 17.0352 35.8549 13.7891 35.8549C 8.21289 35.8549 3.67578 31.3178 3.67578 25.7419C 3.67578 20.7894 7.19922 16.6505 11.9902 15.7964C 12.0352 14.7961 12.1621 13.8179 12.377 12.871L 4.5957 12.871C 3.07617 12.871 1.83789 14.1084 1.83789 15.629L 1.83789 44.129Z"/>
<path id="path1_fill" fill-rule="evenodd" d="M 7.95312 9.89133C 6.43359 9.89133 5.19531 8.6539 5.19531 7.13327C 5.19531 6.74622 5.27734 6.37756 5.42188 6.04382L 0 1.39651L 1.19531 0L 6.68164 4.70065C 7.0625 4.50024 7.49219 4.37521 7.95312 4.37521C 9.47461 4.37521 10.7109 5.61267 10.7109 7.13327C 10.7109 8.6539 9.47461 9.89133 7.95312 9.89133ZM 8.87109 7.13327C 8.87109 6.62671 8.46094 6.21393 7.95312 6.21393C 7.44531 6.21393 7.0332 6.62671 7.0332 7.13327C 7.0332 7.63986 7.44531 8.05264 7.95312 8.05264C 8.46094 8.05264 8.87109 7.63986 8.87109 7.13327Z"/>
<path id="path2_fill" d="M 0 0L 1.83871 0L 1.83871 1.83871L 0 1.83871L 0 0Z"/>
<path id="path3_fill" d="M 5.66782 5.34513C 5.66782 3.1966 4.60137 1.19884 2.81506 0L 1.78998 1.52705C 3.06697 2.38297 3.82911 3.81073 3.82911 5.34513C 3.82911 7.60031 2.2184 9.50613 0 9.87847L 0.303387 11.6924C 3.41173 11.1702 5.66782 8.50219 5.66782 5.34513Z"/>
<path id="path4_fill" d="M 2.15313 2.37194L 2.46203 0.558968C 1.92053 0.466113 1.40385 0.278565 0.924871 0L 0 1.58956C 0.67021 1.97937 1.39466 2.24231 2.15313 2.37194Z"/>
<path id="path5_fill" d="M 0 0L 12.871 0L 12.871 1.83871L 0 1.83871L 0 0Z"/>
<path id="path6_fill" d="M 0 0L 9.19355 0L 9.19355 1.83871L 0 1.83871L 0 0Z"/>
</defs>
</svg>
