<svg width="56" height="58" viewBox="0 0 56 58" version="1.1" xmlns="http://www.w3.org/2000/svg" xmlns:xlink="http://www.w3.org/1999/xlink">
<title>004-like</title>
<desc>Created using Figma</desc>
<g id="Canvas" transform="translate(-26569 476)">
<g id="004-like">
<g id="Shape">
<use xlink:href="#path0_fill" transform="translate(26572.5 -433)" fill="#ED1A3B"/>
</g>
<g id="Shape">
<use xlink:href="#path1_fill" transform="translate(26569.5 -476)" fill="#ED1A3B"/>
</g>
</g>
</g>
<defs>
<path id="path0_fill" fill-rule="evenodd" d="M 0 5C 0 2.24301 2.24219 0 5 0C 7.75781 0 10 2.24301 10 5C 10 7.75699 7.75781 10 5 10C 2.24219 10 0 7.75699 0 5ZM 2 5C 2 6.65399 3.3457 8 5 8C 6.6543 8 8 6.65399 8 5C 8 3.34601 6.6543 2 5 2C 3.3457 2 2 3.34601 2 5Z"/>
<path id="path1_fill" fill-rule="evenodd" d="M 55 35C 55 32.505 53.625 31.338 52.2852 30.767C 53.3359 29.85 54 28.501 54 27C 54 24.243 51.7578 22 49 22L 34.6348 22L 35.3633 18.59C 36.3359 14.041 35.6973 8.87399 35.4785 7.39899C 34.9609 3.90601 31.8711 0 28.5137 0L 28.2734 0C 26.6777 0 24 0.908997 24 7C 24 15.023 21.998 18.694 20.3184 20.36C 18.8281 21.8392 17.3887 21.9646 17.0645 21.9929L 17 22L 16 22L 16 20L 0 20L 0 58L 16 58L 16 56L 44 56C 46.7578 56 49 53.757 49 51C 49 49.836 48.5996 48.764 47.9316 47.913C 50.2441 47.476 52 45.439 52 43C 52 41.836 51.5996 40.764 50.9316 39.913C 53.2441 39.476 55 37.439 55 35ZM 2 56L 2 22L 14 22L 14 56L 2 56ZM 47 38L 50 38C 51.6543 38 53 36.654 53 35C 53 33.595 52.4648 32.58 49.8535 32.193C 48.8242 32.04 46.8828 32 46 32L 39 32C 38.4473 32 38 31.553 38 31C 38 30.447 38.4473 30 39 30L 46 30L 47 30L 49 30C 50.6543 30 52 28.654 52 27C 52 25.346 50.6543 24 49 24L 32.1621 24L 33.4062 18.171C 34.3105 13.951 33.707 9.08301 33.5 7.69101C 33.1211 5.13 30.7441 2 28.5137 2L 28.2734 2C 26.2949 2 26 5.133 26 7C 26 14.061 24.5371 19.059 21.6504 21.855C 19.3887 24.049 17.0664 24.018 16.9688 23.999L 16 24L 16 54L 44 54C 45.6543 54 47 52.654 47 51C 47 49.346 45.6543 48 44 48L 37 48C 36.4473 48 36 47.553 36 47C 36 46.447 36.4473 46 37 46L 44 46L 45 46L 47 46C 48.6543 46 50 44.654 50 43C 50 41.346 48.6543 40 47 40L 39 40C 38.4473 40 38 39.553 38 39C 38 38.447 38.4473 38 39 38L 47 38Z"/>
</defs>
</svg>
