<svg width="60" height="52" viewBox="0 0 60 52" version="1.1" xmlns="http://www.w3.org/2000/svg" xmlns:xlink="http://www.w3.org/1999/xlink">
<title>003-upload</title>
<desc>Created using Figma</desc>
<g id="Canvas" transform="translate(-26886 462)">
<g id="003-upload">
<g id="Shape">
<use xlink:href="#path0_fill" transform="translate(26886 -461.5)" fill="#ED1A3B"/>
</g>
<g id="Shape">
<use xlink:href="#path1_fill" transform="translate(26908 -435.499)" fill="#ED1A3B"/>
</g>
</g>
</g>
<defs>
<path id="path0_fill" d="M 50.975 16.194C 50.448 7.194 43.029 0 34.084 0C 28.654 0 23.396 2.663 20.138 7.008C 20.064 6.969 19.985 6.943 19.91 6.906C 19.712 6.81 19.511 6.718 19.305 6.637C 19.19 6.592 19.075 6.551 18.959 6.51C 18.757 6.439 18.553 6.377 18.344 6.32C 18.228 6.289 18.113 6.257 17.995 6.23C 17.771 6.179 17.543 6.14 17.312 6.106C 17.21 6.091 17.11 6.071 17.007 6.059C 16.677 6.023 16.341 6 16 6C 11.038 6 7 10.037 7 15C 7 15.129 7.007 15.255 7.016 15.381C 2.857 17.648 0 22.399 0 27.154C 0 34.237 5.762 40 12.845 40L 18 40C 18.552 40 19 39.553 19 39C 19 38.447 18.552 38 18 38L 12.845 38C 6.865 38 2 33.135 2 27.154C 2 23 4.705 18.688 8.432 16.901L 9 16.63L 9 16C 9 15.877 9.008 15.751 9.015 15.625L 9.024 15.45L 9.012 15.262C 9.007 15.175 9 15.088 9 15C 9 11.141 12.14 8 16 8C 16.309 8 16.614 8.027 16.917 8.067C 16.995 8.077 17.072 8.09 17.149 8.103C 17.417 8.147 17.681 8.205 17.941 8.28C 17.975 8.29 18.01 8.296 18.043 8.306C 18.329 8.393 18.608 8.504 18.881 8.628C 18.95 8.659 19.018 8.693 19.086 8.727C 19.328 8.846 19.565 8.978 19.793 9.126C 21.72 10.375 23 12.539 23 15C 23 15.553 23.448 16 24 16C 24.552 16 25 15.553 25 15C 25 12.246 23.754 9.781 21.8 8.129C 24.666 4.379 29.388 2 34.084 2C 41.828 2 48.262 8.135 48.932 15.887C 47.91 15.815 46.379 15.778 44.849 16.012C 44.303 16.095 43.928 16.605 44.011 17.151C 44.086 17.646 44.512 18.001 44.998 18.001C 45.048 18.001 45.099 17.997 45.15 17.989C 47.374 17.653 49.693 17.968 49.834 17.987C 54.49 18.872 58 23.161 58 27.972C 58 33.501 53.501 38 47.972 38L 44 38C 43.448 38 43 38.447 43 39C 43 39.553 43.448 40 44 40L 47.972 40C 54.604 40 60 34.604 60 27.972C 60 22.483 56.173 17.56 50.975 16.194Z"/>
<path id="path1_fill" d="M 9.70825 0.29275C 9.61625 0.19975 9.50525 0.12675 9.38225 0.07575C 9.13825 -0.02525 8.86225 -0.02525 8.61825 0.07575C 8.49525 0.12675 8.38525 0.19975 8.29225 0.29275L 0.29325 8.29175C -0.09775 8.68275 -0.09775 9.31475 0.29325 9.70575C 0.48825 9.90075 0.74425 9.99875 1.00025 9.99875C 1.25625 9.99875 1.51225 9.90075 1.70725 9.70575L 8.00025 3.41275L 8.00025 23.9988C 8.00025 24.5518 8.44825 24.9988 9.00025 24.9988C 9.55225 24.9988 10.0002 24.5518 10.0002 23.9988L 10.0002 3.41275L 16.2932 9.70575C 16.4882 9.90075 16.7442 9.99875 17.0002 9.99875C 17.2563 9.99875 17.5123 9.90075 17.7073 9.70575C 18.0983 9.31475 18.0983 8.68275 17.7073 8.29175L 9.70825 0.29275Z"/>
</defs>
</svg>
