<svg width="57" height="22" viewBox="0 0 57 22" version="1.1" xmlns="http://www.w3.org/2000/svg" xmlns:xlink="http://www.w3.org/1999/xlink">
<title>001-administrator</title>
<desc>Created using Figma</desc>
<g id="Canvas" transform="translate(-26241 144)">
<g id="001-administrator">
<g id="Shape">
<use xlink:href="#path0_fill" transform="translate(26241 -143.041)" fill="#ED1A3B"/>
</g>
</g>
</g>
<defs>
<path id="path0_fill" fill-rule="evenodd" d="M 55.0703 9.27927C 53.793 7.40063 52.0098 6.09645 49.916 5.50784L 49.8535 5.49275L 42.291 3.90544L 40.2559 0.807999L 40.2227 0.76091C 39.9141 0.348175 39.4434 0.075882 38.9336 0.0136871C 38.4238 -0.0483856 37.9023 0.103226 37.5039 0.429871L 37.4863 0.445084L 28.4414 8.25749L 19.3965 0.445084L 19.3789 0.429871C 18.9805 0.103104 18.459 -0.0485077 17.9492 0.0136871C 17.4395 0.075882 16.9707 0.348175 16.6621 0.76091L 16.6289 0.807999L 14.5918 3.90544L 7.0293 5.49275L 6.96875 5.50784C 4.87305 6.09657 3.0918 7.40063 1.8125 9.27927C 0.644531 10.9975 0 13.0714 0 15.1186L 0 17.4781C 0 19.3805 1.70117 20.9284 3.79297 20.9284L 25.5957 20.9284L 31.2812 20.9284L 53.0918 20.9284C 55.1816 20.9284 56.8828 19.3805 56.8828 17.4781L 56.8828 15.1186C 56.8828 13.0714 56.2402 10.9975 55.0703 9.27927ZM 38.7031 1.90373L 40.5605 4.72983L 34.0156 13.7608L 31.957 11.6945L 29.834 9.56512L 38.7031 1.90373ZM 29.3906 16.1719L 27.4941 16.1719L 27.3242 16.1664L 26.7539 19.026L 30.1289 19.026L 29.5586 16.1664L 29.3906 16.1719ZM 30.3379 13.318C 30.3379 13.8425 29.9121 14.2693 29.3887 14.2693L 27.4922 14.2693C 26.9707 14.2693 26.5449 13.8425 26.5449 13.318L 26.5449 12.7607L 28.4414 10.858L 30.3379 12.7607L 30.3379 13.318ZM 27.0488 9.565L 18.1797 1.90373L 16.3223 4.72971L 22.8672 13.7607L 24.9277 11.6937L 27.0488 9.565ZM 1.89648 17.4781L 1.89648 15.1186C 1.89648 12.0413 3.80469 8.38983 7.45117 7.34807L 14.7637 5.8132L 21.9863 15.78C 22.1504 16.005 22.4023 16.1471 22.6797 16.1688L 22.7539 16.1717C 23.0039 16.1717 23.2461 16.0721 23.4238 15.8931L 24.877 14.435C 25.0332 14.7996 25.2617 15.1249 25.5449 15.3932L 24.8203 19.0257L 3.79297 19.0257C 2.74805 19.0258 1.89648 18.3315 1.89648 17.4781ZM 53.0918 19.0258C 54.1367 19.0258 54.9883 18.3315 54.9883 17.4781L 54.9883 15.1187C 54.9883 12.0414 53.0801 8.38995 49.4336 7.34819L 42.1211 5.81332L 34.8984 15.7801C 34.7344 16.0051 34.4824 16.1472 34.2051 16.1689L 34.1309 16.1718C 33.8809 16.1718 33.6387 16.0723 33.4609 15.8932L 32.0078 14.4351C 31.8516 14.7997 31.623 15.1252 31.3398 15.3933L 32.0645 19.0258L 53.0918 19.0258Z"/>
</defs>
</svg>
