<svg width="57" height="57" viewBox="0 0 57 57" version="1.1" xmlns="http://www.w3.org/2000/svg" xmlns:xlink="http://www.w3.org/1999/xlink">
<title>002-calendar</title>
<desc>Created using Figma</desc>
<g id="Canvas" transform="translate(-26562 179)">
<g id="002-calendar">
<g id="Shape">
<use xlink:href="#path0_fill" transform="translate(26562 -179)" fill="#ED1A3B"/>
</g>
<g id="Shape">
<use xlink:href="#path1_fill" transform="translate(26609.2 -166.531)" fill="#ED1A3B"/>
</g>
<g id="Shape">
<use xlink:href="#path2_fill" transform="translate(26588.7 -158.516)" fill="#ED1A3B"/>
</g>
<g id="Shape">
<use xlink:href="#path2_fill" transform="translate(26588.7 -154.062)" fill="#ED1A3B"/>
</g>
<g id="Shape">
<use xlink:href="#path2_fill" transform="translate(26595 -158.516)" fill="#ED1A3B"/>
</g>
<g id="Shape">
<use xlink:href="#path2_fill" transform="translate(26595 -154.062)" fill="#ED1A3B"/>
</g>
<g id="Shape">
<use xlink:href="#path2_fill" transform="translate(26582.5 -158.516)" fill="#ED1A3B"/>
</g>
<g id="Shape">
<use xlink:href="#path2_fill" transform="translate(26582.5 -154.062)" fill="#ED1A3B"/>
</g>
<g id="Shape">
<use xlink:href="#path2_fill" transform="translate(26576.2 -158.516)" fill="#ED1A3B"/>
</g>
<g id="Shape">
<use xlink:href="#path2_fill" transform="translate(26576.2 -154.062)" fill="#ED1A3B"/>
</g>
<g id="Shape">
<use xlink:href="#path2_fill" transform="translate(26576.2 -149.609)" fill="#ED1A3B"/>
</g>
<g id="Shape">
<use xlink:href="#path3_fill" transform="translate(26576.2 -145.156)" fill="#ED1A3B"/>
</g>
<g id="Shape">
<use xlink:href="#path2_fill" transform="translate(26601.2 -158.516)" fill="#ED1A3B"/>
</g>
<g id="Shape">
<use xlink:href="#path2_fill" transform="translate(26601.2 -154.062)" fill="#ED1A3B"/>
</g>
<g id="Shape">
<use xlink:href="#path2_fill" transform="translate(26601.2 -149.609)" fill="#ED1A3B"/>
</g>
<g id="Shape">
<use xlink:href="#path4_fill" transform="translate(26603 -145.156)" fill="#ED1A3B"/>
</g>
<g id="Shape">
<use xlink:href="#path5_fill" transform="translate(26607.4 -158.516)" fill="#ED1A3B"/>
</g>
<g id="Shape">
<use xlink:href="#path2_fill" transform="translate(26607.4 -154.062)" fill="#ED1A3B"/>
</g>
<g id="Shape">
<use xlink:href="#path2_fill" transform="translate(26607.4 -149.609)" fill="#ED1A3B"/>
</g>
<g id="Shape">
<use xlink:href="#path2_fill" transform="translate(26607.4 -145.156)" fill="#ED1A3B"/>
</g>
<g id="Shape">
<use xlink:href="#path2_fill" transform="translate(26607.4 -140.703)" fill="#ED1A3B"/>
</g>
<g id="Shape">
<use xlink:href="#path2_fill" transform="translate(26607.4 -136.25)" fill="#ED1A3B"/>
</g>
<g id="Shape">
<use xlink:href="#path6_fill" transform="translate(26570 -158.516)" fill="#ED1A3B"/>
</g>
<g id="Shape">
<use xlink:href="#path6_fill" transform="translate(26570 -154.062)" fill="#ED1A3B"/>
</g>
<g id="Shape">
<use xlink:href="#path6_fill" transform="translate(26570 -149.609)" fill="#ED1A3B"/>
</g>
<g id="Shape">
<use xlink:href="#path6_fill" transform="translate(26570 -145.156)" fill="#ED1A3B"/>
</g>
<g id="Shape">
<use xlink:href="#path6_fill" transform="translate(26570 -140.703)" fill="#ED1A3B"/>
</g>
<g id="Shape">
<use xlink:href="#path6_fill" transform="translate(26570 -136.25)" fill="#ED1A3B"/>
</g>
<g id="Shape">
<use xlink:href="#path7_fill" transform="translate(26577.1 -148.719)" fill="#ED1A3B"/>
</g>
<g id="Shape">
<use xlink:href="#path8_fill" transform="translate(26587.8 -143.375)" fill="#ED1A3B"/>
</g>
</g>
</g>
<defs>
<path id="path0_fill" fill-rule="evenodd" d="M 52.5469 4.45312L 51.6562 4.45312L 51.6562 2.67188C 51.6562 1.19856 50.457 0 48.9844 0C 47.5117 0 46.3125 1.19856 46.3125 2.67188L 46.3125 4.45312L 10.6875 4.45312L 10.6875 2.67188C 10.6875 1.19856 9.48828 0 8.01562 0C 6.54297 0 5.34375 1.19856 5.34375 2.67188L 5.34375 4.45312L 4.45312 4.45312C 1.99805 4.45312 0 6.45079 0 8.90625L 0 48.0938C 0 50.5492 1.99805 52.5469 4.45312 52.5469L 14.25 52.5469C 14.7422 52.5469 15.1406 52.1481 15.1406 51.6562C 15.1406 51.1644 14.7422 50.7656 14.25 50.7656L 4.45312 50.7656C 2.98047 50.7656 1.78125 49.5671 1.78125 48.0938L 1.78125 14.25L 44.5312 14.25C 45.0234 14.25 45.4219 13.8512 45.4219 13.3594C 45.4219 12.8675 45.0234 12.4688 44.5312 12.4688L 1.78125 12.4688L 1.78125 8.90625C 1.78125 7.43294 2.98047 6.23438 4.45312 6.23438L 5.34375 6.23438L 5.34375 8.01562C 5.34375 9.48894 6.54297 10.6875 8.01562 10.6875C 9.48828 10.6875 10.6875 9.48894 10.6875 8.01562L 10.6875 6.23438L 46.3125 6.23438L 46.3125 8.01562C 46.3125 9.48894 47.5117 10.6875 48.9844 10.6875C 50.457 10.6875 51.6562 9.48894 51.6562 8.01562L 51.6562 6.23438L 52.5469 6.23438C 54.0195 6.23438 55.2188 7.43294 55.2188 8.90625L 55.2188 12.4688L 53.4375 12.4688C 52.9453 12.4688 52.5469 12.8675 52.5469 13.3594C 52.5469 13.8512 52.9453 14.25 53.4375 14.25L 55.2188 14.25L 55.2188 48.0938C 55.2188 49.5671 54.0195 50.7656 52.5469 50.7656L 42.75 50.7656C 42.2578 50.7656 41.8594 51.1644 41.8594 51.6562C 41.8594 52.1481 42.2578 52.5469 42.75 52.5469L 52.5469 52.5469C 55.002 52.5469 57 50.5492 57 48.0938L 57 8.90625C 57 6.45079 55.002 4.45312 52.5469 4.45312ZM 8.90625 8.01562C 8.90625 8.5067 8.50586 8.90625 8.01562 8.90625C 7.52539 8.90625 7.125 8.5067 7.125 8.01562L 7.125 5.34486L 7.125 2.67188C 7.125 2.1808 7.52539 1.78125 8.01562 1.78125C 8.50586 1.78125 8.90625 2.1808 8.90625 2.67188L 8.90625 8.01562ZM 48.0938 8.01562C 48.0938 8.5067 48.4941 8.90625 48.9844 8.90625C 49.4746 8.90625 49.875 8.5067 49.875 8.01562L 49.875 5.34587L 49.875 5.34163L 49.875 2.67188C 49.875 2.1808 49.4746 1.78125 48.9844 1.78125C 48.4941 1.78125 48.0938 2.1808 48.0938 2.67188L 48.0938 8.01562Z"/>
<path id="path1_fill" d="M 2.67188 1.78125C 3.16372 1.78125 3.5625 1.38247 3.5625 0.890625C 3.5625 0.398777 3.16372 0 2.67188 0L 0.890625 0C 0.398777 0 0 0.398777 0 0.890625C 0 1.38247 0.398777 1.78125 0.890625 1.78125L 2.67188 1.78125Z"/>
<path id="path2_fill" d="M 0.890625 1.78125L 2.67188 1.78125C 3.16372 1.78125 3.5625 1.38247 3.5625 0.890625C 3.5625 0.398777 3.16372 0 2.67188 0L 0.890625 0C 0.398777 0 0 0.398777 0 0.890625C 0 1.38247 0.398777 1.78125 0.890625 1.78125Z"/>
<path id="path3_fill" d="M 0.260508 1.52074C 0.426387 1.68662 0.656836 1.78125 0.890625 1.78125C 1.12553 1.78125 1.35486 1.68662 1.52074 1.52074C 1.68662 1.35486 1.78125 1.12441 1.78125 0.890625C 1.78125 0.656836 1.68662 0.426387 1.52074 0.260508C 1.35486 0.0946289 1.12553 0 0.890625 0C 0.655723 0 0.426387 0.0946289 0.260508 0.260508C 0.0946289 0.426387 0 0.655723 0 0.890625C 0 1.12553 0.0946289 1.35486 0.260508 1.52074Z"/>
<path id="path4_fill" d="M 0.260508 0.260508C 0.0946289 0.426387 0 0.655723 0 0.890625C 0 1.12553 0.0946289 1.35486 0.260508 1.52074C 0.426387 1.68662 0.655723 1.78125 0.890625 1.78125C 1.12553 1.78125 1.35486 1.68662 1.52074 1.52074C 1.68662 1.35486 1.78125 1.12441 1.78125 0.890625C 1.78125 0.655723 1.68662 0.426387 1.52074 0.260508C 1.35486 0.0946289 1.12441 0 0.890625 0C 0.655723 0 0.426387 0.0946289 0.260508 0.260508Z"/>
<path id="path5_fill" d="M 0 0.890625C 0 1.38247 0.398777 1.78125 0.890625 1.78125L 2.67188 1.78125C 3.16372 1.78125 3.5625 1.38247 3.5625 0.890625C 3.5625 0.398777 3.16372 0 2.67188 0L 0.890625 0C 0.398777 0 0 0.398777 0 0.890625Z"/>
<path id="path6_fill" d="M 2.67188 0L 0.890625 0C 0.398777 0 0 0.398777 0 0.890625C 0 1.38247 0.398777 1.78125 0.890625 1.78125L 2.67188 1.78125C 3.16372 1.78125 3.5625 1.38247 3.5625 0.890625C 3.5625 0.398777 3.16372 0 2.67188 0Z"/>
<path id="path7_fill" fill-rule="evenodd" d="M 0 13.3594C 0 5.99301 5.99219 0 13.3594 0C 20.7266 0 26.7188 5.99301 26.7188 13.3594C 26.7188 20.7257 20.7266 26.7188 13.3594 26.7188C 5.99219 26.7188 0 20.7257 0 13.3594ZM 14.25 24.0469L 14.25 24.9035C 19.9258 24.4698 24.4688 19.9257 24.9023 14.25L 24.0469 14.25C 23.5547 14.25 23.1562 13.8512 23.1562 13.3594C 23.1562 12.8675 23.5547 12.4688 24.0469 12.4688L 24.9023 12.4688C 24.4688 6.79312 19.9258 2.24893 14.25 1.8152L 14.25 2.67188C 14.25 3.16371 13.8496 3.5625 13.3594 3.5625C 12.8672 3.5625 12.4688 3.16371 12.4688 2.67188L 12.4688 1.8152C 6.79297 2.24893 2.24805 6.79301 1.81445 12.4688L 2.67188 12.4688C 3.16211 12.4688 3.5625 12.8675 3.5625 13.3594C 3.5625 13.8512 3.16211 14.25 2.67188 14.25L 1.81445 14.25C 2.24805 19.9256 6.79297 24.4698 12.4688 24.9035L 12.4688 24.0469C 12.4688 23.555 12.8672 23.1562 13.3594 23.1562C 13.8496 23.1562 14.25 23.555 14.25 24.0469Z"/>
<path id="path8_fill" fill-rule="evenodd" d="M 5.19141 7.125L 9.79688 7.125C 10.2891 7.125 10.6875 7.52377 10.6875 8.01562C 10.6875 8.50748 10.2891 8.90625 9.79688 8.90625L 5.19141 8.90625C 4.82227 9.94283 3.83203 10.6875 2.67188 10.6875C 1.19922 10.6875 0 9.48894 0 8.01562C 0 6.85458 0.744141 5.86455 1.78125 5.49693L 1.78125 0.890625C 1.78125 0.398773 2.17969 0 2.67188 0C 3.16406 0 3.5625 0.398773 3.5625 0.890625L 3.5625 5.49693C 4.32031 5.76579 4.92188 6.36719 5.19141 7.125ZM 1.78125 8.01562C 1.78125 8.5067 2.18164 8.90625 2.67188 8.90625C 3.16211 8.90625 3.5625 8.5067 3.5625 8.01562C 3.5625 7.52455 3.16211 7.125 2.67188 7.125C 2.18164 7.125 1.78125 7.52455 1.78125 8.01562Z"/>
</defs>
</svg>
