<svg width="63" height="59" viewBox="0 0 63 59" version="1.1" xmlns="http://www.w3.org/2000/svg" xmlns:xlink="http://www.w3.org/1999/xlink">
<title>003-mortarboard</title>
<desc>Created using Figma</desc>
<g id="Canvas" transform="translate(-26884 181)">
<g id="003-mortarboard">
<g id="Shape">
<use xlink:href="#path0_fill" transform="translate(26925.9 -128.329)" fill="#ED1A3B"/>
</g>
<g id="Shape">
<use xlink:href="#path1_fill" transform="translate(26884 -165.193)" fill="#ED1A3B"/>
</g>
<g id="Shape">
<use xlink:href="#path2_fill" transform="translate(26894.5 -154.66)" fill="#ED1A3B"/>
</g>
<g id="Shape">
<use xlink:href="#path3_fill" transform="translate(26930.1 -127.275)" fill="#ED1A3B"/>
</g>
<g id="Shape">
<use xlink:href="#path4_fill" transform="translate(26884 -180.992)" fill="#ED1A3B"/>
</g>
<g id="Shape">
<use xlink:href="#path5_fill" transform="translate(26933.3 -128.329)" fill="#ED1A3B"/>
</g>
</g>
</g>
<defs>
<path id="path0_fill" d="M 2.34987 0.0324197C 1.78815 -0.110884 1.21919 0.2346 1.0798 0.798185L 0.0318887 5.01125C -0.109585 5.57682 0.233047 6.14768 0.794766 6.28889C 0.879626 6.31098 0.96559 6.32049 1.04947 6.32049C 1.51896 6.32049 1.94547 6.00129 2.06496 5.52312L 3.11287 1.31005C 3.25324 0.74548 2.91159 0.173625 2.34987 0.0324197Z"/>
<path id="path1_fill" d="M 31.4386 15.7992C 31.5748 15.7992 31.7111 15.7729 31.8389 15.7192L 43.3665 10.9246C 43.9009 10.7023 44.1545 10.0862 43.9335 9.54899C 43.7123 9.01071 43.0972 8.75792 42.5638 8.97812L 31.4386 13.6062L 2.09595 1.40292L 2.09595 1.05324C 2.09595 0.471877 1.62646 0 1.04804 0C 0.469614 0 0 0.471877 0 1.05324L 0 2.10647C 0 2.53305 0.255684 2.91754 0.647684 3.07973L 31.0384 15.7191C 31.1661 15.7727 31.3024 15.7992 31.4386 15.7992Z"/>
<path id="path2_fill" d="M 33.4254 16.0571C 33.1697 15.5358 32.543 15.3209 32.0222 15.579C 30.0321 16.568 26.7079 17.7181 22.0069 17.8751L 22.0069 8.42614C 22.0069 7.84478 21.5374 7.3729 20.959 7.3729C 20.3806 7.3729 19.9111 7.84478 19.9111 8.42614L 19.9111 17.8656C 6.89868 17.4486 2.69954 9.52578 2.09582 8.20705L 2.09582 1.05324C 2.09582 0.471877 1.62633 0 1.04791 0C 0.469491 0 0 0.471877 0 1.05324L 0 8.42614C 0 8.55994 0.0251754 8.69263 0.0744211 8.81791C 0.256789 9.27399 4.71689 20.0121 20.9591 20.0121C 26.6359 20.0121 30.6139 18.6281 32.9508 17.4673C 33.4703 17.2094 33.6831 16.5785 33.4254 16.0571Z"/>
<path id="path3_fill" d="M 1.04791 0C 0.468386 0 0 0.471877 0 1.05324L 0 4.21307C 0 4.79443 0.468386 5.26631 1.04791 5.26631C 1.62744 5.26631 2.09582 4.79443 2.09582 4.21307L 2.09582 1.05324C 2.09582 0.471877 1.62744 0 1.04791 0Z"/>
<path id="path4_fill" fill-rule="evenodd" d="M 61.8301 15.799C 61.25 15.799 60.7812 16.2709 60.7812 16.8522L 60.7812 17.1998L 48.2051 22.4019L 48.2051 20.4986L 62.2305 14.6655C 62.6211 14.5033 62.877 14.1188 62.877 13.6923C 62.877 13.2657 62.6211 12.8823 62.2305 12.719L 31.8398 0.0798035C 31.582 -0.0265961 31.2949 -0.0265961 31.0391 0.0798035L 0.648438 12.7191C 0.255859 12.8824 0 13.2658 0 13.6924C 0 14.119 0.255859 14.5034 0.648438 14.6656L 31.0391 27.305C 31.166 27.3587 31.3027 27.3851 31.4395 27.3851C 31.5742 27.3851 31.7109 27.3588 31.8398 27.305L 42.8281 22.7348C 43.3633 22.5136 43.6172 21.8975 43.3965 21.3592C 43.1738 20.822 42.5625 20.5681 42.0273 20.7893L 31.4395 25.1921L 3.78906 13.6924L 31.4395 2.19269L 59.0879 13.6924L 47.0566 18.6965L 35.5332 14.3717C 35.5938 14.1526 35.6309 13.9273 35.6309 13.6924C 35.6309 11.9208 33.7891 10.5325 31.4395 10.5325C 29.0879 10.5325 27.2461 11.9208 27.2461 13.6924C 27.2461 15.464 29.0879 16.8522 31.4395 16.8522C 32.4883 16.8522 33.4238 16.5646 34.1504 16.1013L 46.1094 20.5893L 46.1094 23.9641L 46.1094 46.538C 44.8926 46.9751 44.0137 48.1326 44.0137 49.504C 44.0137 51.2461 45.4238 52.6638 47.1582 52.6638C 48.8906 52.6638 50.3008 51.2461 50.3008 49.504C 50.3008 48.1327 49.4219 46.9752 48.2051 46.538L 48.2051 40.5596C 51.2148 38.2771 52.293 35.2374 52.3398 35.1026C 52.377 34.992 52.3984 34.8751 52.3984 34.7582L 52.3984 27.3853C 52.3984 26.804 51.9297 26.3321 51.3496 26.3321C 50.7695 26.3321 50.3008 26.804 50.3008 27.3853L 50.3008 34.5634C 50.1211 35.01 49.4902 36.3866 48.2051 37.7454L 48.2051 24.6802L 62.2285 18.8798C 62.6211 18.7176 62.877 18.3322 62.877 17.9056L 62.877 16.8523C 62.877 16.2709 62.4082 15.799 61.8301 15.799ZM 31.4375 14.7456C 30.1582 14.7456 29.3418 14.122 29.3418 13.6924C 29.3418 13.2626 30.1582 12.6391 31.4375 12.6391C 32.7168 12.6391 33.5332 13.2627 33.5332 13.6924C 33.5332 14.1222 32.7168 14.7456 31.4375 14.7456ZM 46.1094 49.5039C 46.1094 50.0843 46.5781 50.5571 47.1582 50.5571C 47.7363 50.5571 48.2051 50.0842 48.2051 49.5039C 48.2051 48.9235 47.7363 48.4507 47.1582 48.4507C 46.5781 48.4507 46.1094 48.9235 46.1094 49.5039Z"/>
<path id="path5_fill" d="M 2.06451 0.797813C 1.92415 0.23435 1.35395 -0.110146 0.794443 0.0320469C 0.232724 0.173129 -0.108925 0.745108 0.0315662 1.30968L 1.07948 5.52275C 1.19897 6.00092 1.62548 6.32011 2.09497 6.32011C 2.17885 6.32011 2.26469 6.31061 2.34967 6.28852C 2.91139 6.14743 3.25304 5.57644 3.11255 5.01088L 2.06451 0.797813Z"/>
</defs>
</svg>
