<svg width="67" height="67" viewBox="0 0 67 67" version="1.1" xmlns="http://www.w3.org/2000/svg" xmlns:xlink="http://www.w3.org/1999/xlink">
<title>clock</title>
<desc>Created using Figma</desc>
<g id="Canvas" transform="translate(-19661 -11641)">
<g id="clock">
<g id="Shape">
<use xlink:href="#path0_fill" transform="translate(19661 11641)" fill="#ED1A3B"/>
</g>
<g id="Shape">
<use xlink:href="#path1_fill" transform="translate(19681.1 11657.6)" fill="#ED1A3B"/>
</g>
<g id="Shape">
<use xlink:href="#path2_fill" transform="translate(19693.4 11648.7)" fill="#ED1A3B"/>
</g>
<g id="Shape">
<use xlink:href="#path3_fill" transform="translate(19693.4 11696.7)" fill="#ED1A3B"/>
</g>
<g id="Shape">
<use xlink:href="#path4_fill" transform="translate(19716.8 11673.2)" fill="#ED1A3B"/>
</g>
<g id="Shape">
<use xlink:href="#path4_fill" transform="translate(19668.8 11673.2)" fill="#ED1A3B"/>
</g>
<g id="Shape">
<use xlink:href="#path5_fill" transform="translate(19710 11655.9)" fill="#ED1A3B"/>
</g>
<g id="Shape">
<use xlink:href="#path6_fill" transform="translate(19676 11689.8)" fill="#ED1A3B"/>
</g>
<g id="Shape">
<use xlink:href="#path7_fill" transform="translate(19710 11689.8)" fill="#ED1A3B"/>
</g>
<g id="Shape">
<use xlink:href="#path7_fill" transform="translate(19676 11655.9)" fill="#ED1A3B"/>
</g>
</g>
</g>
<defs>
<path id="path0_fill" fill-rule="evenodd" d="M 0 33.5C 0 15.0283 15.0273 0 33.5 0C 51.9727 0 67 15.0283 67 33.5C 67 51.9717 51.9727 67 33.5 67C 15.0273 67 0 51.9717 0 33.5ZM 2.23242 33.5C 2.23242 50.7402 16.2598 64.7666 33.5 64.7666C 50.7402 64.7666 64.7656 50.7402 64.7656 33.5C 64.7656 16.2598 50.7402 2.2334 33.5 2.2334C 16.2598 2.2334 2.23242 16.2598 2.23242 33.5Z"/>
<path id="path1_fill" fill-rule="evenodd" d="M 14.5176 1.11621L 14.5176 12.4424C 16.4375 12.9414 17.8672 14.6738 17.8672 16.75C 17.8672 19.2129 15.8633 21.2168 13.4004 21.2168C 11.3262 21.2168 9.5918 19.7871 9.0918 17.8662L 1.11719 17.8662C 0.5 17.8662 0 17.3672 0 16.75C 0 16.1328 0.5 15.6338 1.11719 15.6338L 9.0918 15.6338C 9.49805 14.0713 10.7207 12.8486 12.2832 12.4424L 12.2832 1.11621C 12.2832 0.499023 12.7832 0 13.4004 0C 14.0156 0 14.5176 0.499023 14.5176 1.11621ZM 11.166 16.75C 11.166 17.9814 12.168 18.9834 13.3984 18.9834C 14.6309 18.9834 15.6328 17.9814 15.6328 16.75C 15.6328 15.5186 14.6309 14.5166 13.3984 14.5166C 12.168 14.5166 11.166 15.5186 11.166 16.75Z"/>
<path id="path2_fill" d="M 1.11667 3.35C 1.73307 3.35 2.23333 2.85085 2.23333 2.23333L 2.23333 1.11667C 2.23333 0.49915 1.73307 0 1.11667 0C 0.500267 0 0 0.49915 0 1.11667L 0 2.23333C 0 2.85085 0.500267 3.35 1.11667 3.35Z"/>
<path id="path3_fill" d="M 1.11667 0C 0.500267 0 0 0.49915 0 1.11667L 0 2.23333C 0 2.85085 0.500267 3.35 1.11667 3.35C 1.73307 3.35 2.23333 2.85085 2.23333 2.23333L 2.23333 1.11667C 2.23333 0.49915 1.73307 0 1.11667 0Z"/>
<path id="path4_fill" d="M 2.23333 0L 1.11667 0C 0.500267 0 0 0.49915 0 1.11667C 0 1.73418 0.500267 2.23333 1.11667 2.23333L 2.23333 2.23333C 2.84973 2.23333 3.35 1.73418 3.35 1.11667C 3.35 0.49915 2.84973 0 2.23333 0Z"/>
<path id="path5_fill" d="M 1.11695 0.327044L 0.327462 1.11653C -0.109154 1.55314 -0.109154 2.25888 0.327462 2.69549C 0.545213 2.91324 0.831079 3.02268 1.11695 3.02268C 1.40281 3.02268 1.68868 2.91324 1.90643 2.69549L 2.69591 1.90601C 3.13253 1.46939 3.13253 0.763661 2.69591 0.327044C 2.2593 -0.109573 1.55356 -0.108456 1.11695 0.327044Z"/>
<path id="path6_fill" d="M 1.11695 0.327044L 0.327462 1.11653C -0.109154 1.55314 -0.109154 2.25888 0.327462 2.69549C 0.545213 2.91324 0.831079 3.02268 1.11695 3.02268C 1.40281 3.02268 1.68868 2.91324 1.90643 2.69549L 2.69591 1.90601C 3.13253 1.46939 3.13253 0.763661 2.69591 0.327044C 2.2593 -0.109573 1.55245 -0.108456 1.11695 0.327044Z"/>
<path id="path7_fill" d="M 1.90643 0.327462C 1.46981 -0.109154 0.764079 -0.109154 0.327462 0.327462C -0.109154 0.764079 -0.109154 1.46981 0.327462 1.90643L 1.11695 2.69591C 1.3347 2.91366 1.62056 3.0231 1.90643 3.0231C 2.1923 3.0231 2.47816 2.91366 2.69591 2.69591C 3.13253 2.2593 3.13253 1.55356 2.69591 1.11695L 1.90643 0.327462Z"/>
</defs>
</svg>
