<svg width="53" height="55" viewBox="0 0 53 55" version="1.1" xmlns="http://www.w3.org/2000/svg" xmlns:xlink="http://www.w3.org/1999/xlink">
<title>005-arrow</title>
<desc>Created using Figma</desc>
<g id="Canvas" transform="translate(-20159 -11480)">
<g id="005-arrow">
<g id="Shape">
<use xlink:href="#path0_fill" transform="translate(20186 11491)" fill="#ED1A3B"/>
</g>
<g id="Shape">
<use xlink:href="#path1_fill" transform="translate(20159 11480)" fill="#ED1A3B"/>
</g>
</g>
</g>
<defs>
<path id="path0_fill" d="M 25.923 13.3822C 26.024 13.1382 26.024 12.8632 25.923 12.6182C 25.872 12.4952 25.798 12.3843 25.706 12.2913L 13.707 0.29325C 13.316 -0.09775 12.684 -0.09775 12.293 0.29325C 11.902 0.68425 11.902 1.31625 12.293 1.70725L 22.586 12.0002L 1 12.0002C 0.447 12.0002 0 12.4473 0 13.0002C 0 13.5532 0.447 14.0002 1 14.0002L 22.586 14.0002L 12.293 24.2932C 11.902 24.6842 11.902 25.3162 12.293 25.7073C 12.488 25.9023 12.744 26.0002 13 26.0002C 13.256 26.0002 13.512 25.9023 13.707 25.7073L 25.706 13.7083C 25.798 13.6163 25.872 13.5052 25.923 13.3822Z"/>
<path id="path1_fill" fill-rule="evenodd" d="M 34 30C 34 29.4473 34.4473 29 35 29C 35.5527 29 36 29.4473 36 30L 36 47C 36 47.5527 35.5527 48 35 48L 24 48L 24 54C 24 54.3203 23.8477 54.6201 23.5898 54.8076C 23.418 54.9336 23.2109 55 23 55C 22.8984 55 22.7969 54.9844 22.6973 54.9541L 0.697266 47.9541L 0.675781 47.9424L 0.650391 47.9297C 0.621094 47.9189 0.59375 47.9043 0.566406 47.8887L 0.539062 47.874C 0.470703 47.8369 0.404297 47.7949 0.347656 47.7441C 0.314453 47.7148 0.285156 47.6855 0.257812 47.6543C 0.203125 47.5938 0.162109 47.5293 0.125 47.458L 0.105469 47.4209C 0.0917969 47.3994 0.0800781 47.3779 0.0722656 47.3555C 0.0292969 47.2432 0 47.125 0 47L 0 1C 0 0.87793 0.0273438 0.760742 0.0703125 0.649414L 0.0917969 0.588867C 0.138672 0.489258 0.199219 0.398438 0.275391 0.316406L 0.326172 0.268555L 0.361328 0.235352L 0.410156 0.192383C 0.423828 0.182617 0.439453 0.177734 0.455078 0.172852L 0.492188 0.158203C 0.572266 0.109375 0.65625 0.0751953 0.751953 0.0498047C 0.804688 0.0361328 0.853516 0.0234375 0.908203 0.0175781L 0.949219 0.00878906C 0.966797 0.00488281 0.982422 0 1 0L 35 0C 35.5527 0 36 0.447266 36 1L 36 18C 36 18.5527 35.5527 19 35 19C 34.4473 19 34 18.5527 34 18L 34 2L 7.44141 2L 23.3027 7.04688C 23.7188 7.17871 24 7.56445 24 8L 24 46L 34 46L 34 30ZM 2 46.2695L 22 52.6328L 22 8.73145L 2 2.36719L 2 46.2695Z"/>
</defs>
</svg>
