<svg width="26" height="27" viewBox="0 0 26 27" version="1.1" xmlns="http://www.w3.org/2000/svg" xmlns:xlink="http://www.w3.org/1999/xlink">
<title>LK button</title>
<desc>Created using Figma</desc>
<g id="Canvas" transform="translate(-20879 3056)">
<g id="LK button">
<g id="head">
<use xlink:href="#path0_stroke" transform="translate(20887 -3054)" fill="#FFFFFF"/>
</g>
<g id="body">
<use xlink:href="#path1_stroke" transform="translate(20881 -3038)" fill="#FFFFFF"/>
</g>
</g>
</g>
<defs>
<path id="path0_stroke" d="M 5 11.5C 8.58985 11.5 11.5 8.58985 11.5 5L 8.5 5C 8.5 6.933 6.933 8.5 5 8.5L 5 11.5ZM 11.5 5C 11.5 1.41015 8.58985 -1.5 5 -1.5L 5 1.5C 6.933 1.5 8.5 3.067 8.5 5L 11.5 5ZM 5 -1.5C 1.41015 -1.5 -1.5 1.41015 -1.5 5L 1.5 5C 1.5 3.067 3.067 1.5 5 1.5L 5 -1.5ZM -1.5 5C -1.5 8.58985 1.41015 11.5 5 11.5L 5 8.5C 3.067 8.5 1.5 6.933 1.5 5L -1.5 5Z"/>
<path id="path1_stroke" d="M 0 8C 1.43884 8.42394 1.43865 8.42461 1.43846 8.42525C 1.43841 8.42543 1.43823 8.42603 1.43812 8.42638C 1.43819 8.42616 1.43747 8.42857 1.43761 8.42811C 1.4376 8.42813 1.4372 8.42948 1.4372 8.42946C 1.43779 8.42753 1.43776 8.42759 1.43892 8.4239C 1.44241 8.41271 1.44571 8.40228 1.45275 8.38106C 1.46933 8.33083 1.48985 8.27085 1.52413 8.179C 1.59832 7.97907 1.69921 7.72705 1.85842 7.39326C 2.1908 6.69086 2.65799 5.85296 3.41042 4.96129C 4.85964 3.22532 7.21507 1.5 11 1.5L 11 -1.5C 6.14208 -1.5 2.9975 0.774679 1.10744 3.03871C 0.190226 4.14704 -0.472055 5.30914 -0.851724 6.10674C -1.04854 6.52295 -1.19932 6.89593 -1.2878 7.1335C -1.33486 7.2604 -1.37342 7.37229 -1.39558 7.43925C -1.40792 7.47662 -1.41891 7.51112 -1.42487 7.5302C -1.42844 7.54165 -1.43197 7.55318 -1.43372 7.55895C -1.43488 7.56277 -1.43617 7.56706 -1.43674 7.56898C -1.43717 7.5704 -1.4377 7.57218 -1.43791 7.57289C -1.43808 7.57348 -1.43832 7.57427 -1.4384 7.57456C -1.43863 7.57533 -1.43884 7.57606 0 8ZM 11 1.5C 14.7849 1.5 17.1404 3.22532 18.5896 4.96129C 19.342 5.85296 19.8092 6.69086 20.1416 7.39326C 20.3008 7.72705 20.4017 7.97907 20.4759 8.179C 20.5101 8.27085 20.5307 8.33083 20.5473 8.38106C 20.5543 8.40228 20.5576 8.41271 20.5611 8.4239C 20.5622 8.42759 20.5622 8.42753 20.5628 8.42946C 20.5628 8.42948 20.5624 8.42813 20.5624 8.42811C 20.5625 8.42857 20.5618 8.42616 20.5619 8.42638C 20.5618 8.42603 20.5616 8.42543 20.5615 8.42525C 20.5614 8.42461 20.5612 8.42394 22 8C 23.4388 7.57606 23.4386 7.57533 23.4384 7.57456C 23.4383 7.57427 23.4381 7.57348 23.4379 7.57289C 23.4377 7.57218 23.4372 7.5704 23.4367 7.56898C 23.4362 7.56706 23.4349 7.56277 23.4337 7.55895C 23.432 7.55318 23.4284 7.54165 23.4249 7.5302C 23.4189 7.51112 23.4079 7.47662 23.3956 7.43925C 23.3734 7.37229 23.3349 7.2604 23.2878 7.1335C 23.1993 6.89593 23.0485 6.52295 22.8517 6.10674C 22.4721 5.30914 21.8098 4.14704 20.8926 3.03871C 19.0025 0.774679 15.8579 -1.5 11 -1.5L 11 1.5Z"/>
</defs>
</svg>
