<svg width="116" height="32" viewBox="0 0 116 32" version="1.1" xmlns="http://www.w3.org/2000/svg" xmlns:xlink="http://www.w3.org/1999/xlink">
<title>logo</title>
<desc>Created using Figma</desc>
<g id="Canvas" transform="translate(-19074 3059)">
<g id="logo">
<mask id="mask0_outline" mask-type="alpha">
<g id="Clip 2">
<use xlink:href="#path0_fill" transform="translate(19074 -3059)" fill="#FFFFFF"/>
</g>
</mask>
<g id="Fill 1" mask="url(#mask0_outline)">
<use xlink:href="#path1_fill" transform="translate(19074 -3059)" fill="#ED1A3B"/>
</g>
</g>
</g>
<defs>
<path id="path0_fill" fill-rule="evenodd" d="M 115.764 3.78956e-15L 7.8615e-15 3.78956e-15L 0 32L 115.764 32L 115.764 0L 115.764 3.78956e-15Z"/>
<path id="path1_fill" fill-rule="evenodd" d="M 104.097 27.4289L 102.566 25.1428C 105.53 23.1724 107.484 19.8142 107.484 16.0001C 107.484 12.186 105.53 8.82782 102.566 6.85742L 104.097 4.57129C 107.802 7.03476 110.244 11.2326 110.244 16.0001C 110.244 20.7678 107.802 24.9654 104.097 27.4289L 104.097 27.4289ZM 96.4434 15.9999L 97.9739 13.7148C 98.7146 14.2074 99.2035 15.0463 99.2035 15.9999C 99.2035 16.9535 98.7146 17.7924 97.9739 18.285L 96.4434 15.9999ZM 99.5059 11.4284L 101.037 9.14258C 103.26 10.621 104.725 13.1394 104.725 15.9999C 104.725 18.8604 103.26 21.3788 101.037 22.8572L 99.5059 20.5714C 100.988 19.586 101.965 17.9068 101.965 15.9999C 101.965 14.093 100.988 12.4138 99.5059 11.4284L 99.5059 11.4284ZM 113.005 16C 113.005 21.7213 110.075 26.7584 105.629 29.7141L 107.16 32C 112.346 28.5512 115.765 22.6747 115.765 16C 115.765 9.32533 112.346 3.4488 107.16 0L 105.629 2.28587C 110.075 5.2416 113.005 10.2787 113.005 16L 113.005 16ZM 92.4249 16L 103.141 32L 92.4249 32L 87.067 24L 81.709 32L 68.3141 32L 62.9561 24L 57.5982 32L 46.8822 32L 57.5982 16L 52.2402 8L 37.7737 8L 37.7737 12L 46.8822 12L 46.8822 20L 37.7737 20L 37.7737 24L 48.2217 24L 42.8637 32L 28.1293 32L 28.1293 8L 20.8961 8L 20.8961 32L 11.2517 32L 11.2517 8L 5.35797 8L 0 0L 57.5982 0L 62.9561 8L 68.3141 0L 79.03 0L 68.3141 16L 75.0116 26L 81.709 16L 77.0208 9L 82.3788 1L 87.067 8L 92.4249 0L 103.141 0L 92.4249 16Z"/>
</defs>
</svg>
