<svg width="79" height="79" viewBox="0 0 79 79" version="1.1" xmlns="http://www.w3.org/2000/svg" xmlns:xlink="http://www.w3.org/1999/xlink">
<title>003-smartphone</title>
<desc>Created using Figma</desc>
<g id="Canvas" transform="translate(-28320 -1077)">
<g id="003-smartphone">
<g id="Rectangle-path">
<use xlink:href="#path0_fill" transform="translate(28337.8 1148.35)" fill="#ED1A3B"/>
</g>
<g id="Shape">
<use xlink:href="#path1_fill" transform="translate(28320 1077)" fill="#ED1A3B"/>
</g>
<g id="Shape">
<use xlink:href="#path2_fill" transform="translate(28376.1 1082.1)" fill="#ED1A3B"/>
</g>
</g>
</g>
<defs>
<path id="path0_fill" d="M 0 0L 15.2903 0L 15.2903 2.54839L 0 2.54839L 0 0Z"/>
<path id="path1_fill" fill-rule="evenodd" d="M 79 14.0161C 79 6.28809 72.7109 0 64.9844 0C 57.709 0 51.7129 5.57458 51.0352 12.7419L 50.9668 12.7419L 50.9668 6.37097C 50.9668 2.85803 48.1094 0 44.5977 0L 6.37109 0C 2.85742 0 0 2.85803 0 6.37097L 0 72.629C 0 76.142 2.85742 79 6.37109 79L 44.5977 79C 48.1094 79 50.9668 76.142 50.9668 72.629L 50.9668 63.7097L 79 63.7097L 79 14.0964L 78.998 14.0426L 79 14.0161ZM 51.0527 15.2903C 51.2461 17.5583 51.9531 19.7487 53.1934 21.6765L 58.918 30.5806L 22.9355 30.5806L 22.9355 15.2903L 51.0527 15.2903ZM 6.37109 2.54834C 4.26367 2.54834 2.54883 4.26343 2.54883 6.37097L 2.54883 7.64514L 48.4199 7.64514L 48.4199 6.37097C 48.4199 4.26343 46.7051 2.54834 44.5977 2.54834L 6.37109 2.54834ZM 48.4199 72.629C 48.4199 74.7365 46.7051 76.4515 44.5977 76.4515L 6.37109 76.4515C 4.26367 76.4515 2.54883 74.7365 2.54883 72.629L 2.54883 68.8064L 48.4199 68.8064L 48.4199 72.629ZM 2.54883 66.2582L 48.4199 66.2582L 48.4199 63.7097L 5.09766 63.7097L 5.09766 12.7419L 48.4199 12.7419L 48.4199 10.1936L 2.54883 10.1936L 2.54883 66.2582ZM 12.7422 15.2903L 12.7422 30.5806L 7.64453 30.5806L 7.64453 15.2903L 12.7422 15.2903ZM 12.7422 42.0483L 7.64453 42.0483L 7.64453 61.1613L 12.7422 61.1613L 12.7422 42.0483ZM 22.9355 61.1613L 22.9355 42.0483L 45.8711 42.0483L 45.8711 61.1613L 22.9355 61.1613ZM 56.0645 61.1614L 76.4512 61.1614L 76.4512 56.0646L 56.0645 56.0646L 56.0645 61.1614ZM 76.4512 45.871L 56.0645 45.871L 56.0645 42.0483L 76.4512 42.0483L 76.4512 45.871ZM 53.5156 39.5L 76.4512 39.5L 76.4512 33.129L 69.4102 33.129L 68.0176 35.2952C 67.3496 36.3336 66.2148 36.9515 64.9824 36.9515C 63.752 36.9515 62.6172 36.3336 61.9492 35.2952L 60.5566 33.129L 20.3867 33.129L 20.3867 15.2903L 15.2891 15.2903L 15.2891 33.129L 7.64453 33.129L 7.64453 39.5L 15.2891 39.5L 15.2891 61.1613L 20.3867 61.1613L 20.3867 39.5L 48.418 39.5L 48.418 61.1613L 53.5156 61.1613L 53.5156 53.5161L 76.4512 53.5161L 76.4512 48.4193L 53.5156 48.4193L 53.5156 39.5ZM 76.4512 30.5807L 71.0488 30.5807L 76.4512 22.1774L 76.4512 30.5807ZM 65.875 33.9164L 74.6289 20.2979C 75.8223 18.4452 76.4512 16.2994 76.4512 14.0963C 76.4512 7.69226 71.3066 2.54834 64.9824 2.54834C 58.6602 2.54834 53.5156 7.69226 53.5156 14.0161C 53.5156 16.2994 54.1445 18.4452 55.3379 20.2979L 64.0918 33.9164C 64.4844 34.5267 65.4824 34.5267 65.875 33.9164Z"/>
<path id="path2_fill" fill-rule="evenodd" d="M 0 8.91931C 0 4.0022 4 0 8.91992 0C 13.8379 0 17.8379 4.0022 17.8379 8.91931C 17.8379 13.8364 13.8379 17.8387 8.91992 17.8387C 4 17.8387 0 13.8364 0 8.91931ZM 2.54883 8.91931C 2.54883 12.4323 5.40625 15.2903 8.91992 15.2903C 12.4336 15.2903 15.291 12.4323 15.291 8.91931C 15.291 5.40637 12.4336 2.54834 8.91992 2.54834C 5.40625 2.54834 2.54883 5.40637 2.54883 8.91931Z"/>
</defs>
</svg>
