<svg width="80" height="80" viewBox="0 0 80 80" version="1.1" xmlns="http://www.w3.org/2000/svg" xmlns:xlink="http://www.w3.org/1999/xlink">
<title>002-tank</title>
<desc>Created using Figma</desc>
<g id="Canvas" transform="translate(-28630 -1076)">
<g id="002-tank">
<g id="Shape">
<use xlink:href="#path0_fill" transform="translate(28657.1 1093.15)" fill="#ED1A3B"/>
</g>
<g id="Rectangle-path">
<use xlink:href="#path1_fill" transform="translate(28661 1081.16)" fill="#ED1A3B"/>
</g>
<g id="Rectangle-path">
<use xlink:href="#path2_fill" transform="matrix(-0.382811 -0.923827 0.923827 -0.382811 28654.2 1088.19)" fill="#ED1A3B"/>
</g>
<g id="Rectangle-path">
<use xlink:href="#path3_fill" transform="matrix(-0.707107 -0.707107 0.707107 -0.707107 28648.6 1092.53)" fill="#ED1A3B"/>
</g>
<g id="Rectangle-path">
<use xlink:href="#path4_fill" transform="matrix(-0.923877 -0.38269 0.38269 -0.923877 28645.1 1098.67)" fill="#ED1A3B"/>
</g>
<g id="Rectangle-path">
<use xlink:href="#path5_fill" transform="translate(28639 1103.1)" fill="#ED1A3B"/>
</g>
<g id="Rectangle-path">
<use xlink:href="#path6_fill" transform="matrix(-0.382811 -0.923827 0.923827 -0.382811 28641.3 1114.46)" fill="#ED1A3B"/>
</g>
<g id="Rectangle-path">
<use xlink:href="#path5_fill" transform="translate(28680.3 1103.1)" fill="#ED1A3B"/>
</g>
<g id="Rectangle-path">
<use xlink:href="#path4_fill" transform="matrix(-0.923877 0.38269 -0.38269 -0.923877 28684.2 1096.69)" fill="#ED1A3B"/>
</g>
<g id="Rectangle-path">
<use xlink:href="#path3_fill" transform="matrix(0.707107 -0.707107 0.707107 0.707107 28674.1 1090.7)" fill="#ED1A3B"/>
</g>
<g id="Rectangle-path">
<use xlink:href="#path6_fill" transform="matrix(0.923827 0.382811 -0.382811 0.923827 28670 1082.44)" fill="#ED1A3B"/>
</g>
<g id="Shape">
<use xlink:href="#path7_fill" transform="translate(28630 1076)" fill="#ED1A3B"/>
</g>
<g id="Shape">
<use xlink:href="#path8_fill" transform="translate(28679 1114.71)" fill="#ED1A3B"/>
</g>
<g id="Shape">
<use xlink:href="#path9_fill" transform="translate(28679 1137.94)" fill="#ED1A3B"/>
</g>
<g id="Shape">
<use xlink:href="#path9_fill" transform="translate(28694.5 1137.94)" fill="#ED1A3B"/>
</g>
<g id="Rectangle-path">
<use xlink:href="#path10_fill" transform="translate(28697.1 1125.03)" fill="#ED1A3B"/>
</g>
<g id="Rectangle-path">
<use xlink:href="#path11_fill" transform="translate(28684.2 1125.03)" fill="#ED1A3B"/>
</g>
<g id="Rectangle-path">
<use xlink:href="#path12_fill" transform="translate(28649.4 1119.87)" fill="#ED1A3B"/>
</g>
</g>
</g>
<defs>
<path id="path0_fill" fill-rule="evenodd" d="M 7.76562 6.80518L 14.5723 0L 16.3965 1.82446L 9.5918 8.62964C 10.0449 9.39746 10.3223 10.28 10.3223 11.2349C 10.3223 14.0813 8.00781 16.3961 5.16211 16.3961C 2.31445 16.3961 0 14.0813 0 11.2349C 0 8.38843 2.31445 6.07361 5.16211 6.07361C 6.11523 6.07361 6.99805 6.35095 7.76562 6.80518ZM 2.58008 11.2349C 2.58008 12.6581 3.73828 13.8154 5.16016 13.8154C 6.58398 13.8154 7.74219 12.6581 7.74219 11.2349C 7.74219 9.81165 6.58398 8.65417 5.16016 8.65417C 3.73828 8.65417 2.58008 9.81165 2.58008 11.2349Z"/>
<path id="path1_fill" d="M 0 0L 2.58065 0L 2.58065 5.16129L 0 5.16129L 0 0Z"/>
<path id="path2_fill" d="M 0 0L 5.16098 0L 5.16098 2.58057L 0 2.58057L 0 0Z"/>
<path id="path3_fill" d="M 0 0L 5.16124 0L 5.16124 2.58062L 0 2.58062L 0 0Z"/>
<path id="path4_fill" d="M 0 0L 5.16158 0L 5.16158 2.58071L 0 2.58071L 0 0Z"/>
<path id="path5_fill" d="M 0 0L 5.16129 0L 5.16129 2.58065L 0 2.58065L 0 0Z"/>
<path id="path6_fill" d="M 0 0L 2.58057 0L 2.58057 5.16098L 0 5.16098L 0 0Z"/>
<path id="path7_fill" fill-rule="evenodd" d="M 60.1758 33.5483L 76.1289 33.5483C 78.2637 33.5483 80 35.2852 80 37.4193L 80 76.129C 80 78.2632 78.2637 80 76.1289 80L 47.7422 80C 45.6074 80 43.8711 78.2632 43.8711 76.129L 43.8711 74.8387L 18.0645 74.8387L 18.0645 80L 15.4844 80L 15.4844 74.8387L 12.9023 74.8387L 12.9023 80L 10.3223 80L 10.3223 74.8387L 0 74.8387L 0 72.2581L 10.3223 72.2581L 10.3223 63.2258L 0 63.2258L 0 60.6451L 10.3223 60.6451L 10.3223 55.4839L 12.9023 55.4839L 12.9023 60.6451L 15.4844 60.6451L 15.4844 55.4839L 18.0645 55.4839L 18.0645 60.6451L 24.5156 60.6451L 24.5156 55.6917C 12.6152 52.3136 3.87109 41.3561 3.87109 28.3871C 3.87109 12.7343 16.6055 0 32.2578 0C 47.9102 0 60.6445 12.7343 60.6445 28.3871C 60.6445 30.1239 60.4863 31.8542 60.1758 33.5483ZM 12.9023 72.2581L 15.4824 72.2581L 15.4824 63.2258L 12.9023 63.2258L 12.9023 72.2581ZM 43.8711 72.2581L 18.0645 72.2581L 18.0645 63.2258L 27.0977 63.2258L 27.0977 56.2955C 28.7715 56.6039 30.4961 56.7743 32.2578 56.7743C 33.9941 56.7743 35.7207 56.6117 37.4199 56.2981L 37.4199 63.2258L 43.8711 63.2258L 43.8711 72.2581ZM 40 60.6453L 43.8711 60.6453L 43.8711 54.2865C 42.6172 54.8478 41.3223 55.3123 40 55.6865L 40 60.6453ZM 43.8711 37.4194L 43.8711 38.7097L 19.3535 38.7097L 19.3535 41.2904L 43.8711 41.2904L 43.8711 43.871L 41.2891 43.871L 41.2891 46.4517L 43.8711 46.4517L 43.8711 51.4259C 40.291 53.231 36.2969 54.1936 32.2578 54.1936C 18.0273 54.1936 6.45117 42.6168 6.45117 28.3871C 6.45117 14.1575 18.0273 2.58069 32.2578 2.58069C 46.4863 2.58069 58.0645 14.1575 58.0645 28.3871C 58.0645 30.129 57.8809 31.8582 57.5371 33.5485L 47.7422 33.5485C 45.6074 33.5485 43.8711 35.2852 43.8711 37.4194ZM 76.1289 77.4193C 76.8418 77.4193 77.418 76.84 77.418 76.129L 77.418 37.4193C 77.418 36.7084 76.8418 36.129 76.1289 36.129L 47.7422 36.129C 47.0293 36.129 46.4512 36.7084 46.4512 37.4193L 46.4512 76.129C 46.4512 76.84 47.0293 77.4193 47.7422 77.4193L 76.1289 77.4193Z"/>
<path id="path8_fill" fill-rule="evenodd" d="M 25.8066 18.0646L 0 18.0646L 0 0L 25.8066 0L 25.8066 18.0646ZM 23.2246 2.58069L 2.58008 2.58069L 2.58008 15.4839L 23.2246 15.4839L 23.2246 2.58069Z"/>
<path id="path9_fill" fill-rule="evenodd" d="M 10.3223 10.3226L 0 10.3226L 0 0L 10.3223 0L 10.3223 10.3226ZM 7.74219 2.58069L 2.58008 2.58069L 2.58008 7.74194L 7.74219 7.74194L 7.74219 2.58069Z"/>
<path id="path10_fill" d="M 0 0L 2.58065 0L 2.58065 2.58065L 0 2.58065L 0 0Z"/>
<path id="path11_fill" d="M 0 0L 10.3226 0L 10.3226 2.58065L 0 2.58065L 0 0Z"/>
<path id="path12_fill" d="M 0 0L 19.3548 0L 19.3548 2.58065L 0 2.58065L 0 0Z"/>
</defs>
</svg>
