<svg width="86" height="63" viewBox="0 0 86 63" version="1.1" xmlns="http://www.w3.org/2000/svg" xmlns:xlink="http://www.w3.org/1999/xlink">
<title>placeholder</title>
<desc>Created using Figma</desc>
<g id="Canvas" transform="translate(-28938 -1090)">
<g id="placeholder">
<g id="Shape">
<use xlink:href="#path0_fill" transform="translate(28938 1090.1)" fill="#ED1A3B"/>
</g>
<g id="Rectangle-path">
<use xlink:href="#path1_fill" transform="translate(28974.4 1103.55)" fill="#ED1A3B"/>
</g>
<g id="Rectangle-path">
<use xlink:href="#path1_fill" transform="translate(28978.4 1103.55)" fill="#ED1A3B"/>
</g>
<g id="Rectangle-path">
<use xlink:href="#path1_fill" transform="translate(28982.4 1103.55)" fill="#ED1A3B"/>
</g>
<g id="Shape">
<use xlink:href="#path2_fill" transform="translate(28970.3 1095.46)" fill="#ED1A3B"/>
</g>
</g>
</g>
<defs>
<path id="path0_fill" fill-rule="evenodd" d="M 64.5 29.4872L 65.1484 29.4872L 86 58.46L 86 62.7908L 0 62.7908L 0 58.5071L 18.1113 29.4872L 33.3613 29.4872C 29.0898 22.8766 26.9238 17.9023 26.9238 14.6968C 26.9238 6.59302 33.5332 0 41.6582 0C 49.7812 0 56.3906 6.5929 56.3906 14.6968C 56.3906 17.9023 54.2246 22.8763 49.9531 29.4872L 64.5 29.4872ZM 68.6973 38.9027L 63.8027 32.1025L 52.7598 32.1025L 54.7246 38.9027L 68.6973 38.9027ZM 29.5469 14.6964C 29.5469 8.03479 34.9805 2.61499 41.6582 2.61499C 48.3359 2.61499 53.7695 8.03455 53.7695 14.6964C 53.7695 19.9097 45.7988 31.3129 41.6582 36.6781C 37.5176 31.314 29.5469 19.9128 29.5469 14.6964ZM 41.6582 42.8452C 43.1543 42.8452 44.373 41.6298 44.373 40.136C 44.373 39.4559 44.1152 38.8192 43.6816 38.3331C 43.0664 39.1328 42.6914 39.6012 42.6797 39.6149L 41.6562 40.8882L 40.6348 39.6149C 40.623 39.601 40.248 39.1327 39.6328 38.3331C 39.1992 38.8193 38.9414 39.4559 38.9414 40.136C 38.9414 41.6299 40.1602 42.8452 41.6582 42.8452ZM 19.5664 32.1025L 27.6328 32.1025L 26.0078 36.1129L 17.0645 36.1129L 19.5664 32.1025ZM 2.62109 59.2546L 2.62109 60.1752L 25.9277 60.1752L 30.4824 45.5286L 25.2734 45.5286C 24.7109 47.0502 23.2422 48.1382 21.5234 48.1382C 19.8047 48.1382 18.3359 47.0503 17.7734 45.5286L 11.1875 45.5286L 2.62109 59.2546ZM 20.1504 44.153C 20.1504 43.3975 20.7656 42.7828 21.5234 42.7828C 22.2812 42.7828 22.8965 43.3975 22.8965 44.153C 22.8965 44.9082 22.2812 45.5228 21.5234 45.5228C 20.7656 45.5228 20.1504 44.9082 20.1504 44.153ZM 34.041 42.9132L 28.6738 60.1753L 35.1738 60.1753L 37.9609 49.5389L 57.959 49.5389C 58.5449 47.2336 60.6426 45.5228 63.1328 45.5228C 65.623 45.5228 67.7207 47.2338 68.3066 49.5392L 76.3516 49.5392L 70.5781 41.5183L 52.75 41.5183L 50.0312 32.1027L 48.2109 32.1027C 47.1562 33.6418 46.1406 35.051 45.2715 36.2234C 46.3457 37.2118 46.9941 38.6194 46.9941 40.1362C 46.9941 43.072 44.5996 45.4607 41.6562 45.4607C 38.7148 45.4607 36.3184 43.072 36.3184 40.1362C 36.3184 38.6199 36.9688 37.212 38.041 36.2234C 37.1738 35.0507 36.1582 33.6418 35.1035 32.1025L 30.459 32.1025L 27.7773 38.7284L 15.4316 38.7284L 12.8203 42.9132L 17.7266 42.9132C 18.252 41.3208 19.7539 40.1674 21.5234 40.1674C 23.293 40.1674 24.7969 41.3208 25.3203 42.9132L 34.041 42.9132ZM 65.8496 50.8477C 65.8496 52.3413 64.6309 53.5568 63.1348 53.5568C 61.6367 53.5568 60.418 52.3416 60.418 50.8477C 60.418 49.3536 61.6367 48.1384 63.1348 48.1384C 64.6309 48.1384 65.8496 49.3536 65.8496 50.8477ZM 37.8848 60.1752L 83.3789 60.1752L 83.3789 59.3015L 78.2344 52.1544L 68.3086 52.1544C 67.7227 54.4604 65.625 56.1719 63.1348 56.1719C 60.6426 56.1719 58.5449 54.4604 57.959 52.1544L 39.9863 52.1544L 37.8848 60.1752Z"/>
<path id="path1_fill" d="M 0 0L 2.62199 0L 2.62199 2.61551L 0 2.61551L 0 0Z"/>
<path id="path2_fill" fill-rule="evenodd" d="M 0 9.34131C 0 4.19055 4.20117 0 9.36523 0C 14.5273 0 18.7285 4.19055 18.7285 9.34131C 18.7285 14.0375 15.2363 17.9336 10.707 18.5852L 10.707 20.1213L 8.08398 20.1213L 8.08398 18.593C 3.52539 17.9684 0 14.0588 0 9.34131ZM 2.62109 9.34106C 2.62109 13.0499 5.64648 16.067 9.36328 16.0669C 13.082 16.0669 16.1055 13.0499 16.1055 9.34106C 16.1055 5.63245 13.082 2.61536 9.36328 2.61536C 5.64648 2.61536 2.62109 5.63245 2.62109 9.34106Z"/>
</defs>
</svg>
