<svg width="80" height="64" viewBox="0 0 80 64" version="1.1" xmlns="http://www.w3.org/2000/svg" xmlns:xlink="http://www.w3.org/1999/xlink">
<title>001-technology</title>
<desc>Created using Figma</desc>
<g id="Canvas" transform="translate(-28318 -1539)">
<g id="001-technology">
<g id="Shape">
<use xlink:href="#path0_fill" transform="translate(28318 1539)" fill="#ED1A3B"/>
</g>
<g id="Shape">
<use xlink:href="#path1_fill" transform="translate(28336.7 1543)" fill="#ED1A3B"/>
</g>
<g id="Shape">
<use xlink:href="#path2_fill" transform="translate(28383.3 1544.33)" fill="#ED1A3B"/>
</g>
<g id="Shape">
<use xlink:href="#path3_fill" transform="translate(28324.7 1576.33)" fill="#ED1A3B"/>
</g>
</g>
</g>
<defs>
<path id="path0_fill" fill-rule="evenodd" d="M 78.666 0L 1.33398 0C 0.595703 0 0 0.595947 0 1.33337L 0 52C 0 52.7373 0.595703 53.3334 1.33398 53.3334L 36 53.3334L 36 57.3334L 29.334 57.3334L 29.334 64L 50.666 64L 50.666 57.3334L 44 57.3334L 44 53.3334L 78.666 53.3334C 79.4043 53.3334 80 52.7373 80 52L 80 1.33337C 80 0.595947 79.4043 0 78.666 0ZM 48 60L 48 61.3334L 32 61.3334L 32 60L 38.666 60L 38.666 53.3334L 41.334 53.3334L 41.334 60L 48 60ZM 44 50.6666L 77.332 50.6666L 77.332 2.66663L 2.66602 2.66663L 2.66602 50.6666L 36 50.6666L 44 50.6666Z"/>
<path id="path1_fill" fill-rule="evenodd" d="M 54.666 33.3334L 37.832 33.3334L 37.7188 33.2333C 37.248 32.8174 36.7461 32.472 36.2188 32.2L 30.0566 28.2147L 29.9297 28.1414C 29.4629 27.908 28.9453 27.8 28.4902 27.704C 28.3438 27.6747 28.1543 27.6333 28 27.5934L 28 25.8573L 28.1875 25.7294C 29.0898 25.108 29.5117 24.7974 29.7676 24.4387C 30.6914 23.1306 31.6152 21.7227 32.207 20.2107C 33.4883 19.624 34.668 18.4907 34.668 17.052L 34.668 14.0587C 34.668 13.5081 34.4512 12.9707 34.0273 12.464C 33.7129 12.0853 33.334 11.472 33.334 10.704L 33.334 9.29871C 33.25 6.08264 30.9102 0 22.666 0C 14.4219 0 12.084 6.08264 12 9.33337L 12 10.7026C 12 11.4707 11.623 12.084 11.3086 12.4613C 10.8828 12.9707 10.666 13.5081 10.666 14.0587L 10.666 17.052C 10.666 18.3373 11.7246 19.248 12.4707 19.772C 13.3594 22.46 16.0469 24.4586 17.334 25.2893L 17.334 27.0587C 16.9844 27.3973 15.9219 27.9027 15.4453 28.1294C 15.1523 28.2693 14.8926 28.3933 14.6719 28.5146L 8.42578 32.1414C 7.89648 32.4293 7.38867 32.8026 6.91602 33.248L 6.82617 33.3334L 0 33.3334L 0 42.6666L 54.666 42.6666L 54.666 33.3334ZM 15.9805 30.8386C 16.1367 30.7533 16.3496 30.652 16.5918 30.5374C 18.1094 29.8146 20 28.916 20 27.2733L 20 23.7466L 19.3047 23.3679C 18.2559 22.796 15.4238 20.8319 14.9199 18.6387L 14.7988 18.1106L 14.3438 17.8159C 13.8105 17.4717 13.5566 17.2357 13.4375 17.1233C 13.3711 17.062 13.3457 17.0374 13.334 17.052L 13.334 14.1973L 13.3555 14.1707C 14.2012 13.1586 14.666 11.9253 14.666 10.7026L 14.666 9.36792C 14.6738 9.0946 14.9316 2.66663 22.666 2.66663C 30.209 2.66663 30.6426 8.68799 30.666 9.33325L 30.666 10.7026C 30.666 11.9093 31.1211 13.1239 32 14.2053L 32.002 17.0333C 31.957 17.2227 31.418 17.7133 30.7637 17.9133L 30.0996 18.1173L 29.8867 18.7786C 29.4355 20.1826 28.5156 21.5867 27.6562 22.8132C 27.5254 22.9429 27.0195 23.2924 26.7168 23.5016L 26.6738 23.532C 26.1074 23.9213 25.8516 24.1027 25.666 24.312L 25.334 24.692L 25.334 28C 25.334 29.7666 27.0957 30.136 27.9414 30.3132C 28.2129 30.3693 28.5156 30.4333 28.6875 30.5039L 33.0625 33.3333L 11.6816 33.3333L 15.9805 30.8386ZM 2.66602 40L 52 40L 52 36L 36.5977 36L 8.0918 36L 2.66602 36L 2.66602 40Z"/>
<path id="path2_fill" fill-rule="evenodd" d="M 0 0L 8 0L 8 8L 0 8L 0 0ZM 2.66602 5.33325L 5.33203 5.33325L 5.33203 2.66663L 2.66602 2.66663L 2.66602 5.33325Z"/>
<path id="path3_fill" fill-rule="evenodd" d="M 0 0L 9.33398 0L 9.33398 9.33337L 0 9.33337L 0 0ZM 2.66602 6.66663L 6.66602 6.66663L 6.66602 2.66663L 2.66602 2.66663L 2.66602 6.66663Z"/>
</defs>
</svg>
