<svg width="78" height="78" viewBox="0 0 78 78" version="1.1" xmlns="http://www.w3.org/2000/svg" xmlns:xlink="http://www.w3.org/1999/xlink">
<title>speedometer</title>
<desc>Created using Figma</desc>
<g id="Canvas" transform="translate(-28938 -1523)">
<g id="speedometer">
<g id="Shape">
<use xlink:href="#path0_fill" transform="translate(28938 1523)" fill="#ED1A3B"/>
</g>
<g id="Shape">
<use xlink:href="#path1_fill" transform="translate(28972 1546.01)" fill="#ED1A3B"/>
</g>
<g id="Shape">
<use xlink:href="#path2_fill" transform="translate(28943 1565.77)" fill="#ED1A3B"/>
</g>
<g id="Shape">
<use xlink:href="#path3_fill" transform="translate(28953.3 1575.08)" fill="#ED1A3B"/>
</g>
</g>
</g>
<defs>
<path id="path0_fill" fill-rule="evenodd" d="M 39 0C 17.4941 0 0 17.4958 0 39C 0 42.7528 0.550781 46.4515 1.59961 50.0131C 0.570312 52.4286 0 55.0844 0 57.871C 0 68.9696 9.03125 78 20.1289 78C 22.916 78 25.5703 77.4301 27.9863 76.401C 31.5508 77.449 35.248 78 39 78C 60.5059 78 78 60.5042 78 39C 78 17.4958 60.5059 0 39 0ZM 20.1289 75.4839C 10.416 75.4839 2.51562 67.5833 2.51562 57.871C 2.51562 48.1587 10.416 40.2581 20.1289 40.2581C 29.8398 40.2581 37.7422 48.1587 37.7422 57.871C 37.7422 67.5833 29.8398 75.4839 20.1289 75.4839ZM 10.4062 40.2581L 8.82422 40.2581L 8.82617 40.3114C 8.83203 40.6008 8.83984 40.9021 8.85352 41.2067C 9.35547 40.8669 9.875 40.5525 10.4062 40.2581ZM 37.7422 67.5946L 37.7422 69.1433L 37.4219 69.1326C 37.2227 69.1267 37.0215 69.1207 36.8223 69.1068C 37.1523 68.6187 37.4551 68.1117 37.7422 67.5946ZM 31.2383 74.641C 33.7773 75.1907 36.373 75.4839 39 75.4839C 59.1152 75.4839 75.4824 59.1177 75.4824 39C 75.4824 18.8823 59.1152 2.51611 39 2.51611C 18.8828 2.51611 2.51562 18.8823 2.51562 39C 2.51562 41.6268 2.80859 44.2235 3.35938 46.761C 4.23633 45.4401 5.27539 44.2399 6.43164 43.1616C 6.33984 41.8256 6.28906 40.053 6.28906 39C 6.28906 20.9644 20.9629 6.29028 39 6.29028C 57.0371 6.29028 71.709 20.9644 71.709 39C 71.709 43.7328 70.7207 48.2971 68.7695 52.5645L 66.4824 51.519C 66.7832 50.8597 67.0508 50.1918 67.3027 49.5175L 61.3438 47.5813L 62.123 45.1884L 68.0859 47.1271C 68.709 44.8978 69.0645 42.6018 69.1602 40.2568L 62.9023 40.2568L 62.9023 37.7407L 69.1602 37.7407C 69.0625 35.3717 68.6895 33.0745 68.0742 30.8754L 62.123 32.8091L 61.3438 30.4163L 67.2988 28.4801C 66.4824 26.2847 65.416 24.2114 64.1348 22.2916L 59.0762 25.9664L 57.5977 23.9309L 62.6484 20.2611C 61.2051 18.4407 59.5547 16.7926 57.7363 15.3484L 54.0664 20.4008L 52.0312 18.9213L 55.7051 13.8639C 53.7852 12.5831 51.7109 11.5164 49.5176 10.6986L 47.5801 16.6543L 45.1875 15.8767L 47.123 9.9248C 44.9258 9.30969 42.627 8.93604 40.2578 8.83789L 40.2578 15.0968L 37.7422 15.0968L 37.7422 8.83789C 35.373 8.93604 33.0742 9.31091 30.877 9.92615L 32.8105 15.8781L 30.416 16.6555L 28.4805 10.6998C 26.2852 11.5176 24.2129 12.5844 22.293 13.8651L 25.9668 18.9225L 23.9316 20.402L 20.2617 15.3496C 18.4434 16.7939 16.793 18.4432 15.3496 20.2623L 20.4004 23.9321L 18.9199 25.9677L 13.8633 22.2928C 12.582 24.214 11.5156 26.2872 10.6973 28.4813L 16.6543 30.4175L 15.875 32.8103L 9.92383 30.8767C 9.30859 33.0758 8.93555 35.3729 8.83789 37.7419L 15.0957 37.7419L 15.0957 38.4049C 16.707 37.9872 18.3887 37.7419 20.1289 37.7419C 31.2266 37.7419 40.2578 46.7723 40.2578 57.871C 40.2578 59.6108 40.0117 61.2916 39.5938 62.9032L 40.2578 62.9032L 40.2578 69.1508C 42.6035 69.0526 44.9043 68.6903 47.123 68.0676L 45.1914 62.1219L 47.584 61.3445L 49.5117 67.2788C 51.6914 66.4661 53.7715 65.4155 55.7051 64.1323L 52.0332 59.0774L 54.0664 57.5979L 57.7363 62.6504C 59.5488 61.2174 61.1992 59.5731 62.6543 57.7413L 57.5977 54.0679L 59.0762 52.0322L 64.1465 55.7159C 64.5273 55.1448 64.8906 54.5597 65.2344 53.9596L 67.418 55.2076C 61.5996 65.3866 50.7109 71.7097 39 71.7097C 37.6465 71.7097 36.2949 71.6002 34.957 71.4366C 33.8496 72.6456 32.6094 73.7301 31.2383 74.641Z"/>
<path id="path1_fill" fill-rule="evenodd" d="M 5.0332 10.954C 5.96289 10.954 6.82422 11.2245 7.57227 11.6672L 19.2402 0L 21.0176 1.77893L 9.35156 13.4462C 9.79492 14.1947 10.0645 15.0553 10.0645 15.9862C 10.0645 18.7615 7.80664 21.0184 5.0332 21.0184C 2.25781 21.0184 0 18.7615 0 15.9862C 0 13.2109 2.25781 10.954 5.0332 10.954ZM 2.51562 15.9862C 2.51562 17.3739 3.64453 18.5023 5.03125 18.5023C 6.41992 18.5023 7.54883 17.3739 7.54883 15.9862C 7.54883 14.5986 6.41992 13.4701 5.03125 13.4701C 3.64453 13.4701 2.51562 14.5986 2.51562 15.9862Z"/>
<path id="path2_fill" fill-rule="evenodd" d="M 0 15.0968C 0 6.77222 6.77148 0 15.0977 0C 23.4219 0 30.1934 6.77222 30.1934 15.0968C 30.1934 23.4214 23.4219 30.1936 15.0977 30.1936C 6.77148 30.1936 0 23.4214 0 15.0968ZM 23.459 24.468C 24.793 23.278 25.873 21.8148 26.6055 20.1592L 23.084 19.0143L 23.8594 16.6215L 27.3848 17.7676C 27.5723 16.9058 27.6777 16.0138 27.6777 15.0967C 27.6777 14.1796 27.5723 13.2876 27.3828 12.4271L 23.8574 13.5732L 23.082 11.1804L 26.6016 10.0355C 25.8711 8.37866 24.7891 6.91553 23.457 5.72534L 21.2871 8.71204L 19.252 7.23254L 21.4258 4.24341C 19.9062 3.354 18.1914 2.76392 16.3535 2.5802L 16.3535 6.29028L 13.8379 6.29028L 13.8379 2.57898C 12 2.7627 10.2832 3.35144 8.76367 4.24219L 10.9375 7.23132L 8.90234 8.71082L 6.73242 5.72412C 5.39844 6.91553 4.31836 8.37866 3.58789 10.0343L 7.10938 11.1791L 6.33203 13.5719L 2.80664 12.4259C 2.61914 13.2876 2.51562 14.1796 2.51562 15.0967C 2.51562 16.0138 2.61914 16.9058 2.81055 17.7664L 6.33594 16.6202L 7.11133 19.0131L 3.58984 20.158C 4.32227 21.8148 5.40234 23.278 6.73438 24.468L 8.90625 21.4814L 10.9395 22.9609L 8.76758 25.9501C 10.2871 26.8395 12.002 27.4296 13.8398 27.6132L 13.8398 23.9032L 16.3555 23.9032L 16.3555 27.6132C 18.1914 27.4296 19.9082 26.8407 21.4277 25.9501L 19.2559 22.9609L 21.2891 21.4814L 23.459 24.468Z"/>
<path id="path3_fill" d="M 4.78065 3.27097C 4.68 3.27097 4.58565 3.28858 4.48877 3.2999L 2.0129 0L 0 1.50968L 2.46706 4.79952C 2.33748 5.10271 2.26452 5.4361 2.26452 5.7871C 2.26452 7.17474 3.393 8.30323 4.78065 8.30323C 6.16829 8.30323 7.29677 7.17474 7.29677 5.7871C 7.29677 4.39945 6.16829 3.27097 4.78065 3.27097Z"/>
</defs>
</svg>
