<svg width="79" height="86" viewBox="0 0 79 86" version="1.1" xmlns="http://www.w3.org/2000/svg" xmlns:xlink="http://www.w3.org/1999/xlink">
<title>destination</title>
<desc>Created using Figma</desc>
<g id="Canvas" transform="translate(-28318 -1980)">
<g id="destination">
<g id="Shape">
<use xlink:href="#path0_fill" transform="translate(28318 1993.44)" fill="#ED1A3B"/>
</g>
<g id="Shape">
<use xlink:href="#path1_fill" transform="translate(28322 1980)" fill="#ED1A3B"/>
</g>
<g id="Shape">
<use xlink:href="#path2_fill" transform="translate(28327.4 1985.38)" fill="#ED1A3B"/>
</g>
<g id="Shape">
<use xlink:href="#path3_fill" transform="translate(28375.6 2016.28)" fill="#ED1A3B"/>
</g>
<g id="Shape">
<use xlink:href="#path4_fill" transform="translate(28380.9 2021.66)" fill="#ED1A3B"/>
</g>
<g id="Shape">
<use xlink:href="#path5_fill" transform="translate(28334.1 2027.03)" fill="#ED1A3B"/>
</g>
<g id="Shape">
<use xlink:href="#path6_fill" transform="translate(28339.4 2032.41)" fill="#ED1A3B"/>
</g>
</g>
</g>
<defs>
<path id="path0_fill" fill-rule="evenodd" d="M 65.7656 51.9601C 66.1113 51.3042 66.9219 51.0531 67.5742 51.4003C 68.2285 51.7472 68.4785 52.5601 68.1328 53.2162C 61.8457 65.1494 49.5918 72.5625 36.1523 72.5625C 26.4961 72.5625 17.418 68.7886 10.5879 61.936C 3.75977 55.0833 0 45.9722 0 36.2812C 0 29.5378 1.88477 22.938 5.375 17.2482C 5.43555 16.8816 5.64258 16.5649 5.93555 16.3622C 6.67383 15.2329 7.47656 14.1418 8.34375 13.0963C 8.81641 12.5259 9.66016 12.4484 10.2285 12.9224C 10.7969 13.397 10.875 14.2443 10.4023 14.8148C 10.0469 15.2432 9.70508 15.6805 9.37305 16.1249L 14.4199 16.1249C 14.6211 16.0769 14.834 16.0742 15.041 16.1249L 26.0391 16.1249C 27.1973 10.663 28.873 5.96924 31.0586 3.07666C 30.1738 3.21228 29.2949 3.38049 28.4258 3.58667C 27.707 3.75684 26.9844 3.31018 26.8145 2.58777C 26.6445 1.86548 27.0898 1.14185 27.8105 0.971069C 30.5273 0.32666 33.334 0 36.1523 0C 42.6113 0 48.9512 1.73047 54.4844 5.00391C 59.2578 7.82715 63.3301 11.7297 66.3711 16.3634C 66.6602 16.5638 66.8652 16.8759 66.9277 17.2371C 67.1113 17.5349 67.291 17.8346 67.4668 18.1379C 67.8359 18.7804 67.6172 19.6023 66.9785 19.974C 66.7676 20.0964 66.5371 20.1548 66.3086 20.1548C 65.8457 20.1548 65.3965 19.9142 65.1484 19.4836C 65.0176 19.2576 64.8828 19.0353 64.7461 18.8125L 59.6426 18.8125C 60.1133 19.9821 60.543 21.1953 60.9238 22.4497C 61.1387 23.1594 60.7402 23.9104 60.0332 24.1267C 59.9023 24.1666 59.7715 24.1854 59.6426 24.1854C 59.0684 24.1854 58.5371 23.8124 58.3613 23.2332C 57.8926 21.6896 57.3496 20.214 56.7363 18.8125L 46.7754 18.8125C 47.6484 23.842 48.127 29.4187 48.1953 34.9375L 54.8984 34.9375C 55.6387 34.9375 56.2363 35.5392 56.2363 36.2812C 56.2363 37.0233 55.6387 37.625 54.8984 37.625L 48.1953 37.625C 48.1328 42.6566 47.7305 47.7367 46.998 52.4062L 57.2832 52.4062C 58.002 50.5916 58.6016 48.6877 59.0625 46.722C 59.2324 45.9998 59.9551 45.5527 60.6738 45.7229C 61.3926 45.8936 61.8398 46.6172 61.6699 47.3395C 61.2578 49.0902 60.752 50.782 60.1602 52.4062L 65.5254 52.4062L 65.7656 51.9601ZM 50.3125 63.4438C 52.5723 61.1484 54.5332 58.3027 56.0977 55.0938L 46.5293 55.0938C 45.416 60.9055 43.7598 65.8784 41.5879 69.0146C 44.7129 68.0085 47.666 66.1316 50.3125 63.4438ZM 46.2598 16.125C 45.1562 10.8943 43.5918 6.44238 41.5898 3.55042C 47.123 5.33191 52.0254 9.78943 55.4316 16.125L 46.2598 16.125ZM 62.9316 16.125C 60.2773 12.5831 56.9434 9.57776 53.125 7.31921C 52.5273 6.96521 51.916 6.63245 51.2988 6.3175C 54.0957 8.9093 56.5293 12.2245 58.4434 16.125L 62.9316 16.125ZM 30.5586 9.88831C 32.2188 5.37939 34.3105 2.6875 36.1543 2.6875C 38.3125 2.6875 40.666 6.1582 42.4473 11.9718C 42.8477 13.2729 43.209 14.6625 43.5352 16.125L 28.7754 16.125C 29.2852 13.8229 29.8828 11.7224 30.5586 9.88831ZM 26.9766 29.6425C 26.9316 30.3833 26.2988 30.9482 25.5586 30.9034C 24.8203 30.8593 24.2578 30.2227 24.3027 29.4819C 24.5195 25.8583 24.9277 22.2272 25.5215 18.8125L 15.5781 18.8125C 13.4375 23.688 12.2344 29.2184 12.0723 34.9375L 14.7305 34.9375C 15.4688 34.9375 16.0684 35.5392 16.0684 36.2812C 16.0684 37.0234 15.4688 37.625 14.7305 37.625L 12.0723 37.625C 12.2246 42.9637 13.2734 47.9862 15.0156 52.4062L 16.0684 52.4062C 16.8086 52.4062 17.4082 53.0079 17.4082 53.75C 17.4082 54.4504 16.873 55.0251 16.1914 55.0876C 19.5547 62.0015 24.7168 67.084 30.7324 69.0183C 29.8789 67.7917 29.0254 66.1709 28.209 64.0366C 27.9434 63.344 28.2871 62.5667 28.9785 62.3008C 29.668 62.0354 30.4434 62.3809 30.709 63.0737C 32.3613 67.396 34.3457 69.875 36.1543 69.875C 38.3125 69.875 40.666 66.4043 42.4473 60.5906C 42.9668 58.897 43.4258 57.0544 43.8184 55.0938L 38.832 55.0938C 38.0918 55.0938 37.4922 54.4919 37.4922 53.7499C 37.4922 53.0078 38.0918 52.4061 38.832 52.4061L 44.3066 52.4061C 45.041 47.8907 45.457 42.864 45.5176 37.6249L 38.832 37.6249C 38.0918 37.6249 37.4922 37.0232 37.4922 36.2811C 37.4922 35.5391 38.0918 34.9374 38.832 34.9374L 45.5176 34.9374C 45.4512 29.1724 44.9531 23.6647 44.0742 18.8124L 28.2363 18.8124C 27.6348 22.1437 27.2051 25.8064 26.9766 29.6425ZM 2.70703 37.625L 9.39258 37.625C 9.53125 42.8311 10.4746 47.848 12.1406 52.4062L 6.79297 52.4062C 4.37305 47.9862 2.91797 42.9637 2.70703 37.625ZM 9.39062 34.9375C 9.54297 29.264 10.666 23.7543 12.668 18.8125L 7.55859 18.8125C 4.61914 23.6653 2.93359 29.2238 2.70508 34.9375L 9.39062 34.9375ZM 8.43164 55.0938L 13.2324 55.0938C 14.3066 57.4915 15.5938 59.7354 17.082 61.7786C 18.2969 63.4482 19.6133 64.936 21.0078 66.2358C 15.9375 63.6433 11.6074 59.7917 8.43164 55.0938ZM 52.2168 65.3328C 51.8945 65.6606 51.5684 65.9768 51.2363 66.283C 56.2773 63.7317 60.6523 59.9084 63.8906 55.094L 59.0742 55.094C 57.3125 59.0403 55 62.5071 52.2168 65.3328Z"/>
<path id="path1_fill" fill-rule="evenodd" d="M 10.7109 26.875C 10.4395 26.875 10.166 26.7917 9.93359 26.6248C 9.52734 26.334 0 19.4044 0 10.75C 0 4.82239 4.80469 0 10.7109 0C 16.6191 0 21.4238 4.82239 21.4238 10.75C 21.4238 19.2288 11.9082 26.3179 11.502 26.6155C 11.2676 26.7883 10.9902 26.875 10.7109 26.875ZM 18.7461 10.75C 18.7461 6.3042 15.1406 2.6875 10.7109 2.6875C 6.28125 2.6875 2.67773 6.3042 2.67773 10.75C 2.67773 16.7062 8.54102 22.0533 10.7031 23.8221C 12.8633 22.0223 18.7461 16.5844 18.7461 10.75Z"/>
<path id="path2_fill" d="M 10.7119 5.375C 10.7119 4.63291 10.1123 4.03125 9.37288 4.03125C 8.63343 4.03125 8.0339 4.63291 8.0339 5.375C 8.0339 6.85682 6.8325 8.0625 5.35593 8.0625C 3.87937 8.0625 2.67797 6.85682 2.67797 5.375C 2.67797 3.89318 3.87937 2.6875 5.35593 2.6875C 6.09539 2.6875 6.69492 2.08584 6.69492 1.34375C 6.69492 0.601664 6.09539 0 5.35593 0C 2.40264 0 0 2.41119 0 5.375C 0 8.33881 2.40264 10.75 5.35593 10.75C 8.30923 10.75 10.7119 8.33881 10.7119 5.375Z"/>
<path id="path3_fill" fill-rule="evenodd" d="M 0 10.75C 0 4.82239 4.80469 0 10.7109 0C 16.6191 0 21.4238 4.82239 21.4238 10.75C 21.4238 19.2288 11.9082 26.3179 11.502 26.6155C 11.2676 26.7883 10.9902 26.875 10.7109 26.875C 10.4395 26.875 10.166 26.7917 9.93359 26.6248C 9.52734 26.334 0 19.4044 0 10.75ZM 2.67773 10.75C 2.67773 16.7062 8.54102 22.0533 10.7031 23.8221C 12.8633 22.0223 18.7461 16.5844 18.7461 10.75C 18.7461 6.3042 15.1406 2.6875 10.7109 2.6875C 6.28125 2.6875 2.67773 6.3042 2.67773 10.75Z"/>
<path id="path4_fill" d="M 9.37288 4.03125C 8.63343 4.03125 8.0339 4.63291 8.0339 5.375C 8.0339 6.85682 6.8325 8.0625 5.35593 8.0625C 3.87937 8.0625 2.67797 6.85682 2.67797 5.375C 2.67797 3.89318 3.87937 2.6875 5.35593 2.6875C 6.09539 2.6875 6.69492 2.08584 6.69492 1.34375C 6.69492 0.601664 6.09539 0 5.35593 0C 2.40264 0 0 2.41119 0 5.375C 0 8.33881 2.40264 10.75 5.35593 10.75C 8.30923 10.75 10.7119 8.33881 10.7119 5.375C 10.7119 4.63291 10.1123 4.03125 9.37288 4.03125Z"/>
<path id="path5_fill" fill-rule="evenodd" d="M 9.93359 26.6248C 9.52734 26.334 0 19.4044 0 10.75C 0 4.82239 4.80469 0 10.7109 0C 16.6191 0 21.4238 4.82239 21.4238 10.75C 21.4238 19.2288 11.9082 26.3179 11.502 26.6155C 11.2676 26.7883 10.9902 26.875 10.7109 26.875C 10.4395 26.875 10.166 26.7917 9.93359 26.6248ZM 18.7461 10.75C 18.7461 6.3042 15.1406 2.6875 10.7109 2.6875C 6.28125 2.6875 2.67773 6.3042 2.67773 10.75C 2.67773 16.7062 8.54102 22.0532 10.7031 23.8223C 12.8633 22.0225 18.7461 16.5844 18.7461 10.75Z"/>
<path id="path6_fill" d="M 5.35593 10.75C 8.30923 10.75 10.7119 8.33881 10.7119 5.375C 10.7119 4.63291 10.1123 4.03125 9.37288 4.03125C 8.63343 4.03125 8.0339 4.63291 8.0339 5.375C 8.0339 6.85682 6.8325 8.0625 5.35593 8.0625C 3.87937 8.0625 2.67797 6.85682 2.67797 5.375C 2.67797 3.89318 3.87937 2.6875 5.35593 2.6875C 6.09539 2.6875 6.69492 2.08584 6.69492 1.34375C 6.69492 0.601664 6.09539 0 5.35593 0C 2.40264 0 0 2.41119 0 5.375C 0 8.33881 2.40264 10.75 5.35593 10.75Z"/>
</defs>
</svg>
