<svg width="59" height="60" viewBox="0 0 59 60" version="1.1" xmlns="http://www.w3.org/2000/svg" xmlns:xlink="http://www.w3.org/1999/xlink">
<title>Group</title>
<desc>Created using Figma</desc>
<g id="Canvas" transform="translate(-19663 -11644)">
<g id="Group">
<g id="Path 6">
<use xlink:href="#path0_stroke" transform="translate(19664 11672.9)" fill="#ED1A3B"/>
</g>
<g id="Path 7">
<use xlink:href="#path1_stroke" transform="translate(19664 11645.1)" fill="#ED1A3B"/>
</g>
<g id="Path 11">
<use xlink:href="#path2_stroke" transform="translate(19664 11671.8)" fill="#ED1A3B"/>
</g>
<g id="Path 15">
<use xlink:href="#path3_stroke" transform="translate(19664 11658.5)" fill="#ED1A3B"/>
</g>
<g id="Path 16">
<use xlink:href="#path4_stroke" transform="translate(19684.1 11645.1)" fill="#ED1A3B"/>
</g>
<g id="Path 17">
<use xlink:href="#path5_stroke" transform="translate(19700.8 11645.1)" fill="#ED1A3B"/>
</g>
<g id="Path 18">
<use xlink:href="#path6_stroke" transform="translate(19697.5 11655.1)" fill="#ED1A3B"/>
</g>
<g id="Path 19">
<use xlink:href="#path7_stroke" transform="translate(19690.8 11685.2)" fill="#ED1A3B"/>
</g>
<g id="Path 20">
<use xlink:href="#path8_stroke" transform="translate(19678.5 11691.9)" fill="#ED1A3B"/>
</g>
<g id="Path 21">
<use xlink:href="#path9_stroke" transform="translate(19707.5 11685.2)" fill="#ED1A3B"/>
</g>
<g id="Path 22">
<use xlink:href="#path10_stroke" transform="translate(19706.4 11678.5)" fill="#ED1A3B"/>
</g>
<g id="Path 23">
<use xlink:href="#path11_stroke" transform="translate(19664 11666.3)" fill="#ED1A3B"/>
</g>
<g id="Path 24">
<use xlink:href="#path12_stroke" transform="translate(19715.3 11660.7)" fill="#ED1A3B"/>
</g>
<g id="Path 25">
<use xlink:href="#path13_stroke" transform="translate(19715.3 11666.3)" fill="#ED1A3B"/>
</g>
</g>
</g>
<defs>
<path id="path0_stroke" d="M 0 30.0768L -1 30.0768L -1 31.0768L 0 31.0768L 0 30.0768ZM 56.8955 30.0768L 56.8955 31.0768L 57.8955 31.0768L 57.8955 30.0768L 56.8955 30.0768ZM -1 18.9447L -1 30.0768L 1 30.0768L 1 18.9447L -1 18.9447ZM 0 31.0768L 56.8955 31.0768L 56.8955 29.0768L 0 29.0768L 0 31.0768ZM 57.8955 30.0768L 57.8955 0L 55.8955 0L 55.8955 30.0768L 57.8955 30.0768Z"/>
<path id="path1_stroke" d="M 0 0L 0 -1L -1 -1L -1 0L 0 0ZM 56.8959 0L 57.8959 0L 57.8959 -1L 56.8959 -1L 56.8959 0ZM 1 34.5274L 1 0L -1 0L -1 34.5274L 1 34.5274ZM 0 1L 56.8959 1L 56.8959 -1L 0 -1L 0 1ZM 55.8959 0L 55.8959 15.6029L 57.8959 15.6029L 57.8959 0L 55.8959 0Z"/>
<path id="path2_stroke" d="M 0 2.11321L 5.68737 2.11321L 5.68737 0.113208L 0 0.113208L 0 2.11321Z"/>
<path id="path3_stroke" d="M 13.3846 0L 14.3846 0L 14.3846 -1L 13.3846 -1L 13.3846 0ZM 13.3846 8.90566L 12.3846 8.90566L 12.3846 9.90566L 13.3846 9.90566L 13.3846 8.90566ZM 0 1L 13.3846 1L 13.3846 -1L 0 -1L 0 1ZM 12.3846 0L 12.3846 8.90566L 14.3846 8.90566L 14.3846 0L 12.3846 0ZM 13.3846 9.90566L 18.9615 9.90566L 18.9615 7.90566L 13.3846 7.90566L 13.3846 9.90566Z"/>
<path id="path4_stroke" d="M 0.115385 0L 0.115385 8.90566L 2.11538 8.90566L 2.11538 0L 0.115385 0Z"/>
<path id="path5_stroke" d="M 0.115385 0C 0.115385 0.556604 0.115385 3.33962 0.115385 5.98349C 0.115385 7.30542 0.115385 8.59257 0.115385 9.54923C 0.115385 10.0276 0.115385 10.4233 0.115385 10.6994C 0.115385 10.8375 0.115385 10.9456 0.115385 11.0193C 0.115385 11.0561 0.115385 11.0843 0.115385 11.1033C 0.115385 11.1128 0.115385 11.12 0.115385 11.1248C 0.115385 11.1272 0.115385 11.129 0.115385 11.1302C 0.115385 11.1309 0.115385 11.1313 0.115385 11.1316C 0.115385 11.1318 0.115385 11.1319 0.115385 11.132C 0.115385 11.132 0.115385 11.1321 1.11538 11.1321C 2.11538 11.1321 2.11538 11.132 2.11538 11.132C 2.11538 11.1319 2.11538 11.1318 2.11538 11.1316C 2.11538 11.1313 2.11538 11.1309 2.11538 11.1302C 2.11538 11.129 2.11538 11.1272 2.11538 11.1248C 2.11538 11.12 2.11538 11.1128 2.11538 11.1033C 2.11538 11.0843 2.11538 11.0561 2.11538 11.0193C 2.11538 10.9456 2.11538 10.8375 2.11538 10.6994C 2.11538 10.4233 2.11538 10.0276 2.11538 9.54923C 2.11538 8.59257 2.11538 7.30542 2.11538 5.98349C 2.11538 3.33962 2.11538 0.556604 2.11538 0L 0.115385 0Z"/>
<path id="path6_stroke" d="M 0 2.11321L 8.92308 2.11321L 8.92308 0.113208L 0 0.113208L 0 2.11321Z"/>
<path id="path7_stroke" d="M 2.11538 17.8113L 2.11538 0L 0.115385 0L 0.115385 17.8113L 2.11538 17.8113Z"/>
<path id="path8_stroke" d="M 0 2.11321L 13.431 2.11321L 13.431 0.113208L 0 0.113208L 0 2.11321Z"/>
<path id="path9_stroke" d="M 13.3846 0.113208L 0 0.113208L 0 2.11321L 13.3846 2.11321L 13.3846 0.113208Z"/>
<path id="path10_stroke" d="M 0.115385 0L 0.115385 12.2453L 2.11538 12.2453L 2.11538 0L 0.115385 0Z"/>
<path id="path11_stroke" d="M 18.9615 18.9247L 18.9615 19.9247L 19.9615 19.9247L 19.9615 18.9247L 18.9615 18.9247ZM 18.9615 11.1322L 18.9615 10.1322L 17.9615 10.1322L 17.9615 11.1322L 18.9615 11.1322ZM 30.171 11.1322L 30.171 12.1322L 31.171 12.1322L 31.171 11.1322L 30.171 11.1322ZM 30.171 0L 30.171 -1L 29.171 -1L 29.171 0L 30.171 0ZM 0 19.9247L 18.9615 19.9247L 18.9615 17.9247L 0 17.9247L 0 19.9247ZM 19.9615 18.9247L 19.9615 11.1322L 17.9615 11.1322L 17.9615 18.9247L 19.9615 18.9247ZM 18.9615 12.1322L 30.171 12.1322L 30.171 10.1322L 18.9615 10.1322L 18.9615 12.1322ZM 31.171 11.1322L 31.171 0L 29.171 0L 29.171 11.1322L 31.171 11.1322ZM 30.171 1L 56.8846 1L 56.8846 -1L 30.171 -1L 30.171 1Z"/>
<path id="path12_stroke" d="M -0.706416 0.707797L 4.87051 6.27383L 6.28334 4.85824L 0.706416 -0.707797L -0.706416 0.707797Z"/>
<path id="path13_stroke" d="M 0.706416 6.27383L 6.28334 0.707797L 4.87051 -0.707797L -0.706416 4.85824L 0.706416 6.27383Z"/>
</defs>
</svg>
