<svg width="58" height="58" viewBox="0 0 58 58" version="1.1" xmlns="http://www.w3.org/2000/svg" xmlns:xlink="http://www.w3.org/1999/xlink">
<title>006-technology</title>
<desc>Created using Figma</desc>
<g id="Canvas" transform="translate(-19664 -11477)">
<g id="006-technology">
<g id="Shape">
<use xlink:href="#path0_fill" transform="translate(19672 11485)" fill="#ED1A3B"/>
</g>
<g id="Shape">
<use xlink:href="#path1_fill" transform="translate(19700 11491)" fill="#ED1A3B"/>
</g>
<g id="Shape">
<use xlink:href="#path2_fill" transform="translate(19664 11477)" fill="#ED1A3B"/>
</g>
<g id="Shape">
<use xlink:href="#path3_fill" transform="translate(19700 11522)" fill="#ED1A3B"/>
</g>
<g id="Shape">
<use xlink:href="#path3_fill" transform="translate(19700 11516)" fill="#ED1A3B"/>
</g>
<g id="Shape">
<use xlink:href="#path4_fill" transform="translate(19673 11514)" fill="#ED1A3B"/>
</g>
</g>
</g>
<defs>
<path id="path0_fill" d="M 13 6L 8 6L 8 1C 8 0.447 7.552 0 7 0C 6.448 0 6 0.447 6 1L 6 6L 1 6C 0.448 6 0 6.447 0 7C 0 7.553 0.448 8 1 8L 6 8L 6 13C 6 13.553 6.448 14 7 14C 7.552 14 8 13.553 8 13L 8 8L 13 8C 13.552 8 14 7.553 14 7C 14 6.447 13.552 6 13 6Z"/>
<path id="path1_fill" d="M 13 0L 1 0C 0.448 0 0 0.447 0 1C 0 1.553 0.448 2 1 2L 13 2C 13.552 2 14 1.553 14 1C 14 0.447 13.552 0 13 0Z"/>
<path id="path2_fill" fill-rule="evenodd" d="M 30 0L 28 0L 0 0L 0 28L 0 30L 0 58L 28 58L 30 58L 58 58L 58 30L 58 28L 58 0L 30 0ZM 2 2L 28 2L 28 28L 2 28L 2 2ZM 2 30L 2 56L 28 56L 28 30L 2 30ZM 56 56L 30 56L 30 30L 56 30L 56 56ZM 30 2L 30 28L 56 28L 56 2L 30 2Z"/>
<path id="path3_fill" d="M 1 2L 13 2C 13.552 2 14 1.553 14 1C 14 0.447 13.552 0 13 0L 1 0C 0.448 0 0 0.447 0 1C 0 1.553 0.448 2 1 2Z"/>
<path id="path4_fill" d="M 11.7072 0.29325C 11.3162 -0.09775 10.6842 -0.09775 10.2933 0.29325L 6.00025 4.58625L 1.70725 0.29325C 1.31625 -0.09775 0.68425 -0.09775 0.29325 0.29325C -0.09775 0.68425 -0.09775 1.31625 0.29325 1.70725L 4.58625 6.00025L 0.29325 10.2933C -0.09775 10.6842 -0.09775 11.3162 0.29325 11.7072C 0.48825 11.9022 0.74425 12.0002 1.00025 12.0002C 1.25625 12.0002 1.51225 11.9022 1.70725 11.7072L 6.00025 7.41425L 10.2933 11.7072C 10.4882 11.9022 10.7443 12.0002 11.0002 12.0002C 11.2562 12.0002 11.5122 11.9022 11.7072 11.7072C 12.0982 11.3162 12.0982 10.6842 11.7072 10.2933L 7.41425 6.00025L 11.7072 1.70725C 12.0982 1.31625 12.0982 0.68425 11.7072 0.29325Z"/>
</defs>
</svg>
